<?xml version="1.0" encoding="utf-8"?>
<!-- Generator: Adobe Illustrator 25.4.1, SVG Export Plug-In . SVG Version: 6.00 Build 0)  -->
<svg version="1.1" id="Layer_1" xmlns="http://www.w3.org/2000/svg" xmlns:xlink="http://www.w3.org/1999/xlink" x="0px" y="0px"
	 viewBox="0 0 177.9 51.6" style="enable-background:new 0 0 177.9 51.6;" xml:space="preserve">
<style type="text/css">
	.st0{fill:#F4DB8C;}
	.st1{fill:url(#SVGID_1_);}
	.st2{fill:#03428B;stroke:#FFFFFF;stroke-width:0.75;stroke-miterlimit:10;}
	.st3{fill:#DA251D;stroke:#FFFFFF;stroke-width:0.75;stroke-miterlimit:10;}
	.st4{fill:#00923F;stroke:#FFFFFF;stroke-width:0.75;stroke-miterlimit:10;}
	.st5{fill:#0093DD;stroke:#FFFFFF;stroke-width:0.75;stroke-miterlimit:10;}
	.st6{fill:#FFFFFF;}
	.st7{fill:#DA251D;stroke:#FFFFFF;stroke-miterlimit:10;}
	.st8{fill:#FFF500;}
	.st9{fill:#1F1A17;}
	.st10{fill:#DA251D;}
	.st11{clip-path:url(#SVGID_00000113346923990133391220000005774059508158578107_);}
	.st12{clip-path:url(#SVGID_00000062185940584217996000000006837017281931237016_);}
	.st13{fill:#0093DD;}
	.st14{fill:#00923F;}
	.st15{fill:#03428B;}
</style>
<g>
	<g>
		<path class="st0" d="M173.5,24.2l-43,1.3c-1.1,0-2.1-0.9-2.1-2l-0.5-17.9c0-1.1,0.9-2.1,2-2.1l43-1.3c1.1,0,2.1,0.9,2.1,2
			l0.5,17.9C175.6,23.2,174.7,24.1,173.5,24.2z"/>
	</g>
	<g>
		<path class="st0" d="M74.6,12.6c0,2.5-1,4.4-2.9,5.9c-1.7,1.3-3.9,2-6.5,2.1l-0.1,4.3c0,0.2-0.1,0.3-0.3,0.3l-5.5,0.4
			c-0.3,0-0.4-0.1-0.4-0.3L58.9,4.6c0-0.2,0.1-0.3,0.3-0.3c2.7,0,5,0.1,6.9,0.4c2.8,0.4,4.8,1.1,6.1,2.1C73.8,8,74.6,10,74.6,12.6z
			 M69.1,13.1c0-1.1-0.4-1.9-1.1-2.4c-0.7-0.5-1.5-0.7-2.6-0.7l-0.1,6C67.8,15.8,69.1,14.8,69.1,13.1z"/>
	</g>
	<g>
		<path class="st0" d="M89.9,12.2c0.2,2.5-0.6,4.5-2.5,6.1c-1.6,1.5-3.7,2.3-6.3,2.6l0.3,4.3c0,0.2-0.1,0.3-0.3,0.4l-5.5,0.8
			c-0.2,0-0.4-0.1-0.4-0.3L73.6,5.4c0-0.2,0.1-0.4,0.3-0.4c2.7-0.2,5-0.2,6.9-0.1c2.8,0.2,4.9,0.7,6.3,1.7
			C88.8,7.7,89.7,9.6,89.9,12.2z M84.5,13.1c-0.1-1.1-0.5-1.8-1.3-2.3c-0.7-0.4-1.6-0.6-2.7-0.5l0.4,6
			C83.4,15.9,84.6,14.8,84.5,13.1z"/>
	</g>
	<g>
		<path class="st0" d="M104.7,18c-0.7,3.9-2.9,6.5-6.7,7.7c-2.9,0.9-6.5,1-10.9,0.3c-0.2,0-0.3-0.2-0.3-0.4L90.4,5
			c0-0.2,0.2-0.3,0.4-0.3c4.3,0.7,7.7,2,10.1,3.9C104.1,10.9,105.4,14.1,104.7,18z M98.6,16.9c0.2-1.2,0.1-2.3-0.4-3.3
			c-0.5-1.2-1.3-1.9-2.5-2.1L94.1,21c1.1,0.2,2.1-0.2,3-1.1C97.9,19.1,98.4,18.1,98.6,16.9z"/>
	</g>
	<g>
		<path class="st0" d="M121.2,20.4c0,2.6-1.6,4.4-4.7,5.4c-2,0.7-4.9,1-8.6,1c-0.4,0-0.8,0-1.4,0c-0.6,0-1,0-1.2,0
			c-0.2,0-0.3-0.1-0.3-0.3V5.5c0-0.2,0.1-0.3,0.3-0.3c0.2,0,0.6,0,1.2,0c0.6,0,1.1,0,1.4,0c3.7,0,6.6,0.3,8.6,1
			c3.1,1,4.7,2.8,4.7,5.4c0,1.8-0.9,3.2-2.8,4.4C120.3,17.1,121.2,18.6,121.2,20.4z M115.5,11.9c0-1.6-1.4-2.4-4.1-2.4v4.7
			C114.1,14,115.5,13.3,115.5,11.9z M115.5,19.9c0-1.3-1.4-2-4.1-2.2v4.7c1,0,1.9-0.1,2.6-0.4C115,21.5,115.5,20.9,115.5,19.9z"/>
	</g>
	<linearGradient id="SVGID_1_" gradientUnits="userSpaceOnUse" x1="132.8067" y1="43.6694" x2="167.0326" y2="-7.0614">
		<stop  offset="1.269036e-03" style="stop-color:#0071BF"/>
		<stop  offset="0.5104" style="stop-color:#25A9E0"/>
		<stop  offset="1" style="stop-color:#FFFFFF"/>
	</linearGradient>
	<path class="st1" d="M174,25.4h-43c-1.1,0-2.1-0.9-2.1-2.1V5.5c0-1.1,0.9-2.1,2.1-2.1h43c1.1,0,2.1,0.9,2.1,2.1v17.9
		C176.1,24.5,175.2,25.4,174,25.4z"/>
	<path class="st2" d="M74.6,10.7c0,2.5-1,4.4-2.9,5.9c-1.7,1.3-3.9,2-6.5,2.1l-0.1,4.3c0,0.2-0.1,0.3-0.3,0.3l-5.5,0.4
		c-0.3,0-0.4-0.1-0.4-0.3L58.9,2.6c0-0.2,0.1-0.3,0.3-0.3c2.7,0,5,0.1,6.9,0.4c2.8,0.4,4.8,1.1,6.1,2.1C73.8,6.1,74.6,8,74.6,10.7z
		 M69.1,11.2c0-1.1-0.4-1.9-1.1-2.4C67.3,8.3,66.5,8,65.4,8l-0.1,6C67.8,13.8,69.1,12.9,69.1,11.2z"/>
	<path class="st3" d="M89.9,10.3c0.2,2.5-0.6,4.5-2.5,6.1c-1.6,1.5-3.7,2.3-6.3,2.6l0.3,4.3c0,0.2-0.1,0.3-0.3,0.4l-5.5,0.8
		c-0.2,0-0.4-0.1-0.4-0.3L73.6,3.4c0-0.2,0.1-0.4,0.3-0.4c2.7-0.2,5-0.2,6.9-0.1c2.8,0.2,4.9,0.7,6.3,1.7
		C88.8,5.8,89.7,7.6,89.9,10.3z M84.5,11.2c-0.1-1.1-0.5-1.8-1.3-2.3c-0.7-0.4-1.6-0.6-2.7-0.5l0.4,6C83.4,13.9,84.6,12.9,84.5,11.2
		z"/>
	<path class="st4" d="M104.7,16c-0.7,3.9-2.9,6.5-6.7,7.7c-2.9,0.9-6.5,1-10.9,0.3c-0.2,0-0.3-0.2-0.3-0.4L90.4,3
		c0-0.2,0.2-0.3,0.4-0.3c4.3,0.7,7.7,2,10.1,3.9C104.1,9,105.4,12.1,104.7,16z M98.6,15c0.2-1.2,0.1-2.3-0.4-3.3
		c-0.5-1.2-1.3-1.9-2.5-2.1l-1.6,9.4c1.1,0.2,2.1-0.2,3-1.1C97.9,17.2,98.4,16.2,98.6,15z"/>
	<path class="st5" d="M121.2,18.4c0,2.6-1.6,4.4-4.7,5.4c-2,0.7-4.9,1-8.6,1c-0.4,0-0.8,0-1.4,0c-0.6,0-1,0-1.2,0
		c-0.2,0-0.3-0.1-0.3-0.3V3.6c0-0.2,0.1-0.3,0.3-0.3c0.2,0,0.6,0,1.2,0c0.6,0,1.1,0,1.4,0c3.7,0,6.6,0.3,8.6,1
		c3.1,1,4.7,2.8,4.7,5.4c0,1.8-0.9,3.2-2.8,4.4C120.3,15.2,121.2,16.6,121.2,18.4z M115.5,10c0-1.6-1.4-2.4-4.1-2.4v4.7
		C114.1,12.1,115.5,11.3,115.5,10z M115.5,18c0-1.3-1.4-2-4.1-2.2v4.7c1,0,1.9-0.1,2.6-0.4C115,19.6,115.5,18.9,115.5,18z"/>
	<path class="st6" d="M145.2,10.7c0,0,0,0.1,0,0.1l-1.9,2.2c0,0-0.1,0.1-0.1,0.1c0,0-0.1,0-0.1,0c-1.1-0.8-2.1-1.2-2.9-1.2
		c-0.5,0-0.8,0.2-0.8,0.5c0,0.2,0.5,0.5,1.5,0.9c1.3,0.5,2.2,0.9,2.8,1.3c1,0.7,1.5,1.5,1.5,2.6c0,2.3-1.6,3.5-4.8,3.5
		c-0.8,0-1.6-0.2-2.5-0.5c-0.9-0.4-1.5-0.9-2-1.5c0,0,0-0.1,0-0.1c0-0.1,0-0.1,0-0.1l1.9-2.1c0,0,0.1-0.1,0.2-0.1c0,0,0.3,0.2,1,0.6
		c0.7,0.4,1.4,0.6,1.9,0.6c0.6,0,0.9-0.2,0.9-0.6c0-0.3-0.5-0.5-1.5-0.9c-1.3-0.4-2.2-0.8-2.8-1.1c-1-0.7-1.5-1.6-1.5-2.7
		c0-1,0.6-1.9,1.7-2.6c1-0.6,2-0.9,3.1-0.9c0.8,0,1.7,0.2,2.5,0.5c0.9,0.4,1.6,0.9,2.1,1.5C145.2,10.6,145.2,10.7,145.2,10.7z"/>
	<path class="st6" d="M157.7,18.5c0,0.1-0.1,0.2-0.2,0.2l-2.7,0.2c-0.1,0-0.2-0.1-0.2-0.2l-0.1-6.3l-1.7,6c0,0.1-0.1,0.1-0.2,0.1
		h-1.7c-0.1,0-0.1,0-0.2-0.1l-1.7-6l-0.1,6.3c0,0.1-0.1,0.2-0.2,0.2l-2.7-0.1c-0.1,0-0.2-0.1-0.2-0.2l0.4-10.8
		c0-0.1,0.1-0.2,0.2-0.2l3.2,0c0.1,0,0.2,0,0.2,0.1l2,6l2-6c0-0.1,0.1-0.1,0.2-0.1l3.2,0c0.1,0,0.2,0.1,0.2,0.2L157.7,18.5z"/>
	<path class="st6" d="M167.7,13.4c0,1.4-0.6,2.5-1.7,3.4c-1,0.8-2.2,1.2-3.7,1.2l0,2.4c0,0.1-0.1,0.2-0.2,0.2l-3.1,0.2
		c-0.1,0-0.2-0.1-0.2-0.2l0-11.8c0-0.1,0.1-0.2,0.2-0.2c1.5,0,2.8,0.1,3.9,0.2c1.6,0.2,2.8,0.6,3.5,1.2
		C167.3,10.8,167.7,11.9,167.7,13.4z M164.6,13.7c0-0.6-0.2-1.1-0.6-1.4c-0.4-0.3-0.9-0.4-1.5-0.4l0,3.4
		C163.9,15.3,164.6,14.7,164.6,13.7z"/>
	<g>
		<g>
			<path class="st0" d="M66.5,41c0,1.2-0.5,2.1-1.5,2.9c-0.5,0.4-1.4,0.9-2.8,1.4c-1,0.4-1.5,0.8-1.5,1.1h5c0.1,0,0.2,0.1,0.2,0.2
				v2.6c0,0.1-0.1,0.2-0.2,0.2h-8.6c-0.1,0-0.2-0.1-0.2-0.2c0-0.1,0-0.4,0-0.9c0-0.4,0-0.7,0-0.9c0-2.3,1.4-4,4.3-5
				c1.1-0.4,1.7-0.7,1.7-1c0-0.4-0.3-0.6-0.9-0.6c-0.5,0-1,0.1-1.5,0.4c-0.2,0.1-0.7,0.4-1.3,0.9c0,0-0.1,0-0.1,0
				c-0.1,0-0.1,0-0.1-0.1l-2-2.5c0,0,0-0.1,0-0.1s0-0.1,0-0.1c0.5-0.7,1.2-1.3,2.1-1.7s1.8-0.7,2.6-0.7c1.5,0,2.6,0.3,3.4,0.9
				C66.1,38.6,66.5,39.6,66.5,41z"/>
		</g>
		<g>
			<path class="st0" d="M78.2,44.1c0,1.6-0.5,3-1.4,4.2c-1,1.2-2.3,1.9-3.9,1.9c-1.8,0-3.3-0.6-4.3-1.7c-1-1.1-1.5-2.6-1.5-4.4
				c0-1.8,0.5-3.3,1.6-4.5c1.1-1.3,2.6-1.9,4.3-1.9c1.6,0,2.9,0.7,3.9,2.1C77.7,41,78.2,42.4,78.2,44.1z M74.9,44.2
				c0-0.7-0.2-1.3-0.6-1.9c-0.4-0.6-1-0.9-1.6-0.9s-1.2,0.3-1.6,0.9c-0.4,0.5-0.6,1.2-0.6,1.9c0,0.7,0.2,1.3,0.6,1.9
				c0.4,0.6,1,0.9,1.6,0.9s1.2-0.3,1.6-0.9C74.7,45.5,74.9,44.9,74.9,44.2z"/>
		</g>
		<g>
			<path class="st0" d="M88.3,41c0,1.2-0.5,2.1-1.5,2.9c-0.5,0.4-1.4,0.9-2.8,1.4c-1,0.4-1.5,0.8-1.5,1.1h5c0.1,0,0.2,0.1,0.2,0.2
				v2.6c0,0.1-0.1,0.2-0.2,0.2h-8.6c-0.1,0-0.2-0.1-0.2-0.2c0-0.1,0-0.4,0-0.9c0-0.4,0-0.7,0-0.9c0-2.3,1.4-4,4.3-5
				c1.1-0.4,1.7-0.7,1.7-1c0-0.4-0.3-0.6-0.9-0.6c-0.5,0-1,0.1-1.5,0.4c-0.2,0.1-0.7,0.4-1.3,0.9c0,0-0.1,0-0.1,0
				c-0.1,0-0.1,0-0.1-0.1l-2-2.5c0,0,0-0.1,0-0.1s0-0.1,0-0.1c0.5-0.7,1.2-1.3,2.1-1.7s1.8-0.7,2.6-0.7c1.5,0,2.6,0.3,3.4,0.9
				C87.8,38.6,88.3,39.6,88.3,41z"/>
		</g>
		<g>
			<path class="st0" d="M98.4,41c0,1.2-0.5,2.1-1.5,2.9c-0.5,0.4-1.4,0.9-2.8,1.4c-1,0.4-1.5,0.8-1.5,1.1h5c0.1,0,0.2,0.1,0.2,0.2
				v2.6c0,0.1-0.1,0.2-0.2,0.2H89c-0.1,0-0.2-0.1-0.2-0.2c0-0.1,0-0.4,0-0.9c0-0.4,0-0.7,0-0.9c0-2.3,1.4-4,4.3-5
				c1.1-0.4,1.7-0.7,1.7-1c0-0.4-0.3-0.6-0.9-0.6c-0.5,0-1,0.1-1.5,0.4c-0.2,0.1-0.7,0.4-1.3,0.9c0,0-0.1,0-0.1,0
				c-0.1,0-0.1,0-0.1-0.1l-2-2.5c0,0,0-0.1,0-0.1s0-0.1,0-0.1c0.5-0.7,1.2-1.3,2.1-1.7c0.9-0.4,1.8-0.7,2.6-0.7
				c1.5,0,2.6,0.3,3.4,0.9C97.9,38.6,98.4,39.6,98.4,41z"/>
		</g>
		<g>
			<path class="st0" d="M105.9,38.1c0,0-1.4,3.7-4.2,11.1c0,0.1-0.1,0.1-0.2,0.1l-2.2,0.1c-0.1,0-0.2-0.1-0.2-0.2
				c0,0,1.4-3.7,4.1-11.2c0-0.1,0.1-0.1,0.2-0.1l2.3,0C105.8,37.9,105.9,38,105.9,38.1z"/>
		</g>
		<g>
			<path class="st0" d="M116.2,41c0,1.2-0.5,2.1-1.5,2.9c-0.5,0.4-1.4,0.9-2.8,1.4c-1,0.4-1.5,0.8-1.5,1.1h5c0.1,0,0.2,0.1,0.2,0.2
				v2.6c0,0.1-0.1,0.2-0.2,0.2h-8.6c-0.1,0-0.2-0.1-0.2-0.2c0-0.1,0-0.4,0-0.9c0-0.4,0-0.7,0-0.9c0-2.3,1.4-4,4.3-5
				c1.1-0.4,1.7-0.7,1.7-1c0-0.4-0.3-0.6-0.9-0.6c-0.5,0-1,0.1-1.5,0.4c-0.2,0.1-0.7,0.4-1.3,0.9c0,0-0.1,0-0.1,0
				c-0.1,0-0.1,0-0.1-0.1l-2-2.5c0,0,0-0.1,0-0.1s0-0.1,0-0.1c0.5-0.7,1.2-1.3,2.1-1.7c0.9-0.4,1.8-0.7,2.6-0.7
				c1.5,0,2.6,0.3,3.4,0.9C115.7,38.6,116.2,39.6,116.2,41z"/>
		</g>
		<g>
			<path class="st0" d="M127.8,44.1c0,1.6-0.5,3-1.4,4.2c-1,1.2-2.3,1.9-3.9,1.9c-1.8,0-3.3-0.6-4.3-1.7c-1-1.1-1.5-2.6-1.5-4.4
				c0-1.8,0.5-3.3,1.6-4.5c1.1-1.3,2.6-1.9,4.3-1.9c1.6,0,2.9,0.7,3.9,2.1C127.4,41,127.8,42.4,127.8,44.1z M124.5,44.2
				c0-0.7-0.2-1.3-0.6-1.9c-0.4-0.6-1-0.9-1.6-0.9c-0.7,0-1.2,0.3-1.6,0.9c-0.4,0.5-0.6,1.2-0.6,1.9c0,0.7,0.2,1.3,0.6,1.9
				c0.4,0.6,1,0.9,1.6,0.9c0.7,0,1.2-0.3,1.6-0.9C124.3,45.5,124.5,44.9,124.5,44.2z"/>
		</g>
		<g>
			<path class="st0" d="M137.9,41c0,1.2-0.5,2.1-1.5,2.9c-0.5,0.4-1.4,0.9-2.8,1.4c-1,0.4-1.5,0.8-1.5,1.1h5c0.1,0,0.2,0.1,0.2,0.2
				v2.6c0,0.1-0.1,0.2-0.2,0.2h-8.6c-0.1,0-0.2-0.1-0.2-0.2c0-0.1,0-0.4,0-0.9c0-0.4,0-0.7,0-0.9c0-2.3,1.4-4,4.3-5
				c1.1-0.4,1.7-0.7,1.7-1c0-0.4-0.3-0.6-0.9-0.6c-0.5,0-1,0.1-1.5,0.4c-0.2,0.1-0.7,0.4-1.3,0.9c0,0-0.1,0-0.1,0
				c-0.1,0-0.1,0-0.1-0.1l-2-2.5c0,0,0-0.1,0-0.1s0-0.1,0-0.1c0.5-0.7,1.2-1.3,2.1-1.7c0.9-0.4,1.8-0.7,2.6-0.7
				c1.5,0,2.6,0.3,3.4,0.9C137.4,38.6,137.9,39.6,137.9,41z"/>
		</g>
		<g>
			<path class="st0" d="M147.6,46.4c0,2.4-1.6,3.6-4.9,3.6c-0.8,0-1.7-0.2-2.6-0.6c-0.9-0.4-1.6-0.9-2.1-1.5c0,0,0-0.1,0-0.1
				c0-0.1,0-0.1,0-0.1l2-2.2c0,0,0.1-0.1,0.1-0.1c0,0,0.3,0.2,1.1,0.6c0.8,0.4,1.4,0.6,1.9,0.6c0.6,0,0.9-0.2,0.9-0.6
				c0-0.7-0.6-1-1.9-1c-0.1,0-0.2,0-0.4,0c-0.2,0-0.3,0-0.4,0c-0.1,0-0.2-0.1-0.2-0.2v-2.5c0-0.1,0.1-0.2,0.2-0.2c0.1,0,0.2,0,0.3,0
				c0.1,0,0.2,0,0.3,0c1.4,0,2-0.3,2-1c0-0.3-0.3-0.5-0.8-0.5c-0.8,0-1.8,0.4-3,1.2c0,0-0.1,0-0.1,0s-0.1,0-0.1-0.1l-1.9-2.3
				c0,0,0-0.1,0-0.1s0-0.1,0-0.1c0.5-0.6,1.2-1.1,2.1-1.5c0.9-0.4,1.7-0.6,2.6-0.6c1.1,0,2.2,0.3,3.2,0.9c1.2,0.7,1.7,1.6,1.7,2.7
				c0,1.2-0.6,2.2-1.7,2.9C147,44.4,147.6,45.3,147.6,46.4z"/>
		</g>
	</g>
	<path class="st7" d="M67.1,40.3c0,1.1-0.5,2.1-1.5,2.8c-0.5,0.4-1.4,0.8-2.7,1.4c-1,0.4-1.5,0.8-1.5,1.1h4.9c0.1,0,0.2,0.1,0.2,0.2
		v2.5c0,0.1-0.1,0.2-0.2,0.2H58c-0.1,0-0.2-0.1-0.2-0.2s0-0.4,0-0.9c0-0.4,0-0.7,0-0.9c0-2.3,1.4-3.9,4.2-4.8c1.1-0.4,1.7-0.7,1.7-1
		c0-0.4-0.3-0.6-0.9-0.6c-0.5,0-0.9,0.1-1.5,0.4c-0.2,0.1-0.6,0.4-1.3,0.9c0,0-0.1,0-0.1,0c-0.1,0-0.1,0-0.1-0.1L57.8,39
		c0,0,0-0.1,0-0.1s0-0.1,0-0.1c0.5-0.7,1.2-1.2,2-1.7s1.7-0.6,2.5-0.6c1.4,0,2.5,0.3,3.3,0.8C66.6,38,67.1,39,67.1,40.3z"/>
	<path class="st7" d="M77.3,43.3c0,1.6-0.5,2.9-1.4,4c-1,1.2-2.2,1.8-3.8,1.8c-1.8,0-3.2-0.5-4.2-1.6c-1-1.1-1.5-2.5-1.5-4.3
		c0-1.7,0.5-3.2,1.6-4.4c1.1-1.2,2.5-1.8,4.2-1.8c1.5,0,2.8,0.7,3.7,2C76.8,40.3,77.3,41.7,77.3,43.3z M74.1,43.4
		c0-0.7-0.2-1.3-0.6-1.8c-0.4-0.6-0.9-0.9-1.6-0.9c-0.6,0-1.2,0.3-1.6,0.9c-0.4,0.5-0.5,1.1-0.5,1.8c0,0.7,0.2,1.3,0.5,1.8
		c0.4,0.6,0.9,0.9,1.6,0.9c0.6,0,1.2-0.3,1.6-0.9C73.9,44.7,74.1,44.1,74.1,43.4z"/>
	<path class="st7" d="M86.8,40.3c0,1.1-0.5,2.1-1.5,2.8c-0.5,0.4-1.4,0.8-2.7,1.4c-1,0.4-1.5,0.8-1.5,1.1H86c0.1,0,0.2,0.1,0.2,0.2
		v2.5c0,0.1-0.1,0.2-0.2,0.2h-8.3c-0.1,0-0.2-0.1-0.2-0.2s0-0.4,0-0.9c0-0.4,0-0.7,0-0.9c0-2.3,1.4-3.9,4.2-4.8
		c1.1-0.4,1.7-0.7,1.7-1c0-0.4-0.3-0.6-0.9-0.6c-0.5,0-0.9,0.1-1.5,0.4c-0.2,0.1-0.6,0.4-1.3,0.9c0,0-0.1,0-0.1,0
		c-0.1,0-0.1,0-0.1-0.1L77.5,39c0,0,0-0.1,0-0.1s0-0.1,0-0.1c0.5-0.7,1.2-1.2,2-1.7c0.9-0.4,1.7-0.6,2.5-0.6c1.4,0,2.5,0.3,3.3,0.8
		C86.3,38,86.8,39,86.8,40.3z"/>
	<path class="st7" d="M96.3,40.3c0,1.1-0.5,2.1-1.5,2.8c-0.5,0.4-1.4,0.8-2.7,1.4c-1,0.4-1.5,0.8-1.5,1.1h4.9c0.1,0,0.2,0.1,0.2,0.2
		v2.5c0,0.1-0.1,0.2-0.2,0.2h-8.3c-0.1,0-0.2-0.1-0.2-0.2s0-0.4,0-0.9c0-0.4,0-0.7,0-0.9c0-2.3,1.4-3.9,4.2-4.8
		c1.1-0.4,1.7-0.7,1.7-1c0-0.4-0.3-0.6-0.9-0.6c-0.5,0-0.9,0.1-1.5,0.4c-0.2,0.1-0.6,0.4-1.3,0.9c0,0-0.1,0-0.1,0
		c-0.1,0-0.1,0-0.1-0.1L87,39c0,0,0-0.1,0-0.1s0-0.1,0-0.1c0.5-0.7,1.2-1.2,2-1.7c0.9-0.4,1.7-0.6,2.5-0.6c1.4,0,2.5,0.3,3.3,0.8
		C95.9,38,96.3,39,96.3,40.3z"/>
	<path class="st7" d="M103.9,37.6c0,0-1.3,3.6-4,10.7c0,0.1-0.1,0.1-0.2,0.1l-2.1,0.1c-0.1,0-0.2-0.1-0.2-0.2c0,0,1.3-3.6,4-10.8
		c0-0.1,0.1-0.1,0.2-0.1l2.2,0C103.8,37.4,103.9,37.4,103.9,37.6z"/>
	<path class="st7" d="M113.9,40.3c0,1.1-0.5,2.1-1.5,2.8c-0.5,0.4-1.4,0.8-2.7,1.4c-1,0.4-1.5,0.8-1.5,1.1h4.9
		c0.1,0,0.2,0.1,0.2,0.2v2.5c0,0.1-0.1,0.2-0.2,0.2h-8.3c-0.1,0-0.2-0.1-0.2-0.2s0-0.4,0-0.9c0-0.4,0-0.7,0-0.9
		c0-2.3,1.4-3.9,4.2-4.8c1.1-0.4,1.7-0.7,1.7-1c0-0.4-0.3-0.6-0.9-0.6c-0.5,0-0.9,0.1-1.5,0.4c-0.2,0.1-0.6,0.4-1.3,0.9
		c0,0-0.1,0-0.1,0c-0.1,0-0.1,0-0.1-0.1l-1.9-2.4c0,0,0-0.1,0-0.1s0-0.1,0-0.1c0.5-0.7,1.2-1.2,2-1.7c0.9-0.4,1.7-0.6,2.5-0.6
		c1.4,0,2.5,0.3,3.3,0.8C113.4,38,113.9,39,113.9,40.3z"/>
	<path class="st7" d="M125.1,43.3c0,1.6-0.5,2.9-1.4,4c-1,1.2-2.2,1.8-3.8,1.8c-1.8,0-3.2-0.5-4.2-1.6c-1-1.1-1.5-2.5-1.5-4.3
		c0-1.7,0.5-3.2,1.6-4.4c1.1-1.2,2.5-1.8,4.2-1.8c1.5,0,2.8,0.7,3.7,2C124.7,40.3,125.1,41.7,125.1,43.3z M121.9,43.4
		c0-0.7-0.2-1.3-0.6-1.8c-0.4-0.6-0.9-0.9-1.6-0.9c-0.6,0-1.2,0.3-1.6,0.9c-0.4,0.5-0.5,1.1-0.5,1.8c0,0.7,0.2,1.3,0.5,1.8
		c0.4,0.6,0.9,0.9,1.6,0.9c0.6,0,1.2-0.3,1.6-0.9C121.8,44.7,121.9,44.1,121.9,43.4z"/>
	<path class="st7" d="M135,40.3c0,1.1-0.5,2.1-1.5,2.8c-0.5,0.4-1.4,0.8-2.7,1.4c-1,0.4-1.5,0.8-1.5,1.1h4.9c0.1,0,0.2,0.1,0.2,0.2
		v2.5c0,0.1-0.1,0.2-0.2,0.2h-8.3c-0.1,0-0.2-0.1-0.2-0.2s0-0.4,0-0.9c0-0.4,0-0.7,0-0.9c0-2.3,1.4-3.9,4.2-4.8
		c1.1-0.4,1.7-0.7,1.7-1c0-0.4-0.3-0.6-0.9-0.6c-0.5,0-0.9,0.1-1.5,0.4c-0.2,0.1-0.6,0.4-1.3,0.9c0,0-0.1,0-0.1,0
		c-0.1,0-0.1,0-0.1-0.1l-1.9-2.4c0,0,0-0.1,0-0.1s0-0.1,0-0.1c0.5-0.7,1.2-1.2,2-1.7c0.9-0.4,1.7-0.6,2.5-0.6c1.4,0,2.5,0.3,3.3,0.8
		C134.5,38,135,39,135,40.3z"/>
	<path class="st7" d="M144.3,45.6c0,2.3-1.6,3.5-4.8,3.5c-0.8,0-1.6-0.2-2.5-0.5c-0.9-0.4-1.6-0.9-2.1-1.5c0,0,0-0.1,0-0.1
		c0-0.1,0-0.1,0-0.1l1.9-2.1c0,0,0.1-0.1,0.1-0.1c0,0,0.3,0.2,1,0.6c0.7,0.4,1.4,0.6,1.9,0.6c0.6,0,0.9-0.2,0.9-0.6
		c0-0.7-0.6-1-1.8-1c-0.1,0-0.2,0-0.4,0c-0.2,0-0.3,0-0.4,0c-0.1,0-0.2-0.1-0.2-0.2v-2.4c0-0.1,0.1-0.2,0.2-0.2c0.1,0,0.2,0,0.3,0
		c0.1,0,0.2,0,0.3,0c1.3,0,2-0.3,2-1c0-0.3-0.3-0.5-0.8-0.5c-0.8,0-1.8,0.4-2.9,1.2c0,0-0.1,0-0.1,0c-0.1,0-0.1,0-0.1-0.1l-1.9-2.2
		c0,0,0-0.1,0-0.1s0-0.1,0-0.1c0.5-0.6,1.2-1.1,2.1-1.5c0.8-0.4,1.7-0.5,2.5-0.5c1.1,0,2.1,0.3,3.1,0.9c1.1,0.7,1.7,1.6,1.7,2.6
		c0,1.2-0.5,2.1-1.6,2.8C143.8,43.6,144.3,44.5,144.3,45.6z"/>
	<g>
		<g>
			<path class="st8" d="M25.9,1.6H8.4c0,0,0,17.8,0,23c0,13,15.9,17.3,17.6,17.3c1.7,0,17.6-4.3,17.6-17.3c0-5.2,0-23,0-23L25.9,1.6
				L25.9,1.6z"/>
		</g>
		<g>
			<rect x="9.1" y="2.4" class="st9" width="33.7" height="3.7"/>
		</g>
		<g>
			<g>
				<g>
					<path class="st8" d="M10.6,3.3H11v0.8l0.4-0.8H12l-0.5,0.8L12,5.4h-0.5l-0.3-0.9L11,4.9v0.5h-0.4L10.6,3.3L10.6,3.3z"/>
				</g>
				<g>
					<path class="st8" d="M12.9,5h-0.5l-0.1,0.3H12l0.5-2.1h0.4l0.5,2.1H13L12.9,5z M12.9,4.6l-0.1-0.8l-0.1,0.8H12.9z"/>
				</g>
				<g>
					<path class="st8" d="M13.6,3.3h0.8c0.1,0,0.2,0.1,0.3,0.2c0.1,0.1,0.1,0.2,0.1,0.4c0,0.1,0,0.2-0.1,0.3c0,0.1-0.1,0.1-0.1,0.1
						c0.1,0,0.2,0.1,0.2,0.2c0,0.1,0.1,0.2,0.1,0.3c0,0.1,0,0.2,0,0.3c0,0.1-0.1,0.2-0.1,0.2c0,0-0.1,0.1-0.2,0.1
						c-0.1,0-0.2,0-0.2,0h-0.7L13.6,3.3L13.6,3.3z M14,4.1h0.2c0.1,0,0.1,0,0.1-0.1c0,0,0-0.1,0-0.2c0-0.1,0-0.1,0-0.1
						c0,0-0.1-0.1-0.1-0.1H14L14,4.1L14,4.1z M14,4.9h0.2c0.1,0,0.1,0,0.1-0.1c0,0,0-0.1,0-0.2c0-0.1,0-0.1,0-0.1
						c0,0-0.1-0.1-0.1-0.1H14V4.9z"/>
				</g>
				<g>
					<path class="st8" d="M15.8,3.3h0.4v1.3c0,0.1,0,0.2,0,0.4c0,0.1-0.1,0.2-0.1,0.3c-0.1,0.1-0.1,0.1-0.2,0.2
						c-0.1,0-0.2,0.1-0.3,0.1c-0.1,0-0.1,0-0.2,0c-0.1,0-0.1,0-0.2-0.1c-0.1,0-0.1-0.1-0.1-0.2C15,5.1,15,5,15,4.9
						c0-0.1,0-0.3,0-0.4V3.3h0.4v1.3c0,0.1,0,0.2,0.1,0.3c0,0.1,0.1,0.1,0.2,0.1c0.1,0,0.1,0,0.2-0.1c0-0.1,0.1-0.2,0.1-0.3
						L15.8,3.3L15.8,3.3z"/>
				</g>
				<g>
					<path class="st8" d="M16.5,3.3h0.7c0.1,0,0.3,0.1,0.3,0.2c0.1,0.1,0.1,0.3,0.1,0.5c0,0.2,0,0.4-0.1,0.5
						c-0.1,0.1-0.2,0.2-0.4,0.2h-0.2v0.8h-0.4L16.5,3.3L16.5,3.3z M16.9,4.2L16.9,4.2c0.2,0,0.2,0,0.3-0.1c0,0,0-0.1,0-0.2
						c0-0.1,0-0.1,0-0.2c0,0-0.1-0.1-0.2-0.1h-0.1L16.9,4.2L16.9,4.2z"/>
				</g>
				<g>
					<path class="st8" d="M18.4,5H18l-0.1,0.3h-0.4L18,3.3h0.4l0.5,2.1h-0.4L18.4,5z M18.3,4.6l-0.1-0.8l-0.1,0.8H18.3z"/>
				</g>
				<g>
					<path class="st8" d="M18.8,3.3H20v0.5h-0.4v1.6h-0.4V3.8h-0.4L18.8,3.3L18.8,3.3z"/>
				</g>
				<g>
					<path class="st8" d="M20.2,3.3h1.1v0.4h-0.7v0.3h0.6v0.4h-0.6v0.4h0.7v0.5h-1.1L20.2,3.3L20.2,3.3z"/>
				</g>
				<g>
					<path class="st8" d="M21.6,3.3h0.4l0.5,1.2V3.3h0.4v2.1h-0.4l-0.5-1.2v1.2h-0.4V3.3z"/>
				</g>
				<g>
					<path class="st8" d="M23.7,3.3h0.8c0.1,0,0.2,0.1,0.3,0.2c0.1,0.1,0.1,0.2,0.1,0.4c0,0.1,0,0.2-0.1,0.3c0,0.1-0.1,0.1-0.1,0.1
						c0.1,0,0.2,0.1,0.2,0.2c0,0.1,0.1,0.2,0.1,0.3c0,0.1,0,0.2,0,0.3c0,0.1-0.1,0.2-0.1,0.2c0,0-0.1,0.1-0.2,0.1
						c-0.1,0-0.2,0-0.2,0h-0.7L23.7,3.3L23.7,3.3z M24.1,4.1h0.2c0.1,0,0.1,0,0.1-0.1c0,0,0-0.1,0-0.2c0-0.1,0-0.1,0-0.1
						c0,0-0.1-0.1-0.1-0.1h-0.2L24.1,4.1L24.1,4.1z M24.1,4.9h0.2c0.1,0,0.1,0,0.1-0.1c0,0,0-0.1,0-0.2c0-0.1,0-0.1,0-0.1
						c0,0-0.1-0.1-0.1-0.1h-0.2V4.9z"/>
				</g>
				<g>
					<path class="st8" d="M25.9,5h-0.5l-0.1,0.3h-0.4l0.5-2.1h0.4l0.5,2.1h-0.4L25.9,5z M25.8,4.6l-0.1-0.8l-0.1,0.8H25.8z"/>
				</g>
				<g>
					<path class="st8" d="M26.5,3.3h0.4l0.5,1.2V3.3h0.4v2.1h-0.4l-0.5-1.2v1.2h-0.4L26.5,3.3L26.5,3.3z"/>
				</g>
				<g>
					<path class="st8" d="M28,3.3h0.6c0.1,0,0.2,0,0.3,0.1C29,3.4,29,3.5,29.1,3.6c0,0.1,0.1,0.2,0.1,0.3c0,0.1,0,0.3,0,0.4
						c0,0.2,0,0.4,0,0.5c0,0.1-0.1,0.2-0.1,0.3c-0.1,0.1-0.1,0.1-0.2,0.2c-0.1,0-0.2,0.1-0.2,0.1H28V3.3z M28.4,3.8v1.1h0.1
						c0.1,0,0.1,0,0.2,0c0,0,0.1-0.1,0.1-0.2c0-0.1,0-0.2,0-0.4c0-0.2,0-0.4-0.1-0.5c0-0.1-0.1-0.1-0.2-0.1L28.4,3.8z"/>
				</g>
				<g>
					<path class="st8" d="M30.3,3.3h0.4v1.3c0,0.1,0,0.2,0,0.4c0,0.1-0.1,0.2-0.1,0.3c-0.1,0.1-0.1,0.1-0.2,0.2
						c-0.1,0-0.2,0.1-0.3,0.1c-0.1,0-0.1,0-0.2,0c-0.1,0-0.1,0-0.2-0.1c-0.1,0-0.1-0.1-0.1-0.2c0-0.1-0.1-0.2-0.1-0.2
						c0-0.1,0-0.3,0-0.4V3.3h0.4v1.3c0,0.1,0,0.2,0.1,0.3c0,0.1,0.1,0.1,0.2,0.1c0.1,0,0.1,0,0.2-0.1c0-0.1,0.1-0.2,0.1-0.3
						L30.3,3.3L30.3,3.3z"/>
				</g>
				<g>
					<path class="st8" d="M31,3.3h0.4l0.5,1.2V3.3h0.4v2.1h-0.4l-0.5-1.2v1.2H31V3.3z"/>
				</g>
				<g>
					<path class="st8" d="M33.1,4.6V4.2h0.6v0.9c-0.1,0.1-0.2,0.2-0.3,0.3c-0.1,0-0.2,0.1-0.3,0.1c-0.2,0-0.3,0-0.4-0.1
						c-0.1-0.1-0.2-0.2-0.2-0.4c-0.1-0.2-0.1-0.4-0.1-0.6c0-0.2,0-0.4,0.1-0.6c0.1-0.2,0.1-0.3,0.3-0.4c0.1-0.1,0.2-0.1,0.4-0.1
						c0.1,0,0.3,0,0.3,0.1c0.1,0,0.1,0.1,0.2,0.2c0,0.1,0.1,0.2,0.1,0.3L33.4,4c0-0.1,0-0.1-0.1-0.2c0,0-0.1-0.1-0.1-0.1
						c-0.1,0-0.2,0-0.2,0.1c-0.1,0.1-0.1,0.3-0.1,0.5c0,0.2,0,0.4,0.1,0.5C33,4.9,33,5,33.1,5c0,0,0.1,0,0.1,0c0,0,0.1-0.1,0.1-0.1
						V4.6L33.1,4.6L33.1,4.6z"/>
				</g>
				<g>
					<path class="st8" d="M34.6,3.3h0.8c0.1,0,0.2,0.1,0.3,0.2c0.1,0.1,0.1,0.2,0.1,0.4c0,0.1,0,0.2-0.1,0.3c0,0.1-0.1,0.1-0.1,0.1
						c0.1,0,0.2,0.1,0.2,0.2c0,0.1,0.1,0.2,0.1,0.3c0,0.1,0,0.2,0,0.3c0,0.1-0.1,0.2-0.1,0.2c0,0-0.1,0.1-0.2,0.1
						c-0.1,0-0.2,0-0.2,0h-0.7V3.3L34.6,3.3z M35,4.1h0.2c0.1,0,0.1,0,0.1-0.1c0,0,0-0.1,0-0.2c0-0.1,0-0.1,0-0.1
						c0,0-0.1-0.1-0.1-0.1H35L35,4.1L35,4.1z M35,4.9h0.2c0.1,0,0.1,0,0.1-0.1c0,0,0-0.1,0-0.2c0-0.1,0-0.1,0-0.1
						c0,0-0.1-0.1-0.1-0.1H35V4.9z"/>
				</g>
				<g>
					<path class="st8" d="M36.8,5h-0.5l-0.1,0.3h-0.4l0.5-2.1h0.4l0.5,2.1h-0.4L36.8,5z M36.7,4.6l-0.1-0.8l-0.1,0.8H36.7z"/>
				</g>
				<g>
					<path class="st8" d="M37.4,5.4V3.3h0.7c0.1,0,0.2,0,0.3,0.1c0.1,0,0.1,0.1,0.2,0.2c0,0.1,0.1,0.2,0.1,0.3c0,0.1,0,0.2,0,0.3
						c0,0.1-0.1,0.2-0.1,0.2c0,0-0.1,0.1-0.1,0.1c0,0,0.1,0.1,0.1,0.1c0,0,0,0.1,0.1,0.1c0,0.1,0,0.1,0.1,0.1l0.2,0.6h-0.5L38,4.7
						C38,4.7,38,4.6,38,4.6c0,0-0.1,0-0.1,0h0v0.9L37.4,5.4L37.4,5.4z M37.8,4.1H38c0,0,0.1,0,0.1,0c0,0,0,0,0.1-0.1
						c0,0,0-0.1,0-0.1c0-0.1,0-0.1,0-0.2S38.1,3.7,38,3.7h-0.2V4.1z"/>
				</g>
				<g>
					<path class="st8" d="M39.7,5h-0.5l-0.1,0.3h-0.4l0.5-2.1h0.4l0.5,2.1h-0.4L39.7,5z M39.6,4.6l-0.1-0.8l-0.1,0.8H39.6z"/>
				</g>
				<g>
					<path class="st8" d="M40,3.3h1.2v0.5h-0.4v1.6h-0.4V3.8H40L40,3.3L40,3.3z"/>
				</g>
			</g>
		</g>
		<g>
			<rect x="9.1" y="6.1" class="st10" width="33.7" height="15.6"/>
		</g>
		<g>
			<g>
				<g>
					<g>
						<defs>
							<path id="SVGID_00000071543694295372722900000012204456264063943351_" d="M25.9,41.2c-0.6,0-4.8-1-9-3.7
								c-2.3-1.5-4.1-3.2-5.4-5.1c-1.6-2.3-2.4-5-2.4-7.8V2.3h33.7v22.3c0,2.8-0.8,5.5-2.4,7.8c-1.3,1.9-3.1,3.7-5.4,5.1
								C30.8,40.3,26.5,41.2,25.9,41.2z"/>
						</defs>
						<clipPath id="SVGID_00000015343720760951201670000014069557252812221318_">
							<use xlink:href="#SVGID_00000071543694295372722900000012204456264063943351_"  style="overflow:visible;"/>
						</clipPath>
						<g style="clip-path:url(#SVGID_00000015343720760951201670000014069557252812221318_);">
							<rect x="9.1" y="22.5" class="st6" width="33.6" height="18.8"/>
						</g>
					</g>
				</g>
			</g>
			<g>
				<g>
					<g>
						<defs>
							<path id="SVGID_00000040556965821924895760000001494838956490190490_" d="M25.9,41.2c-0.6,0-4.8-1-9-3.7
								c-2.3-1.5-4.1-3.2-5.4-5.1c-1.6-2.3-2.4-5-2.4-7.8V2.3h33.7v22.3c0,2.8-0.8,5.5-2.4,7.8c-1.3,1.9-3.1,3.7-5.4,5.1
								C30.8,40.3,26.5,41.2,25.9,41.2z"/>
						</defs>
						<clipPath id="SVGID_00000153668951294114513220000007142796915866102417_">
							<use xlink:href="#SVGID_00000040556965821924895760000001494838956490190490_"  style="overflow:visible;"/>
						</clipPath>
						<g style="clip-path:url(#SVGID_00000153668951294114513220000007142796915866102417_);">
							<g>
								<path class="st13" d="M42.8,25c-1,0-1.6-0.5-2-0.9c-0.4-0.3-0.7-0.6-1.4-0.6c-0.7,0-1,0.3-1.4,0.6c-0.4,0.4-1,0.9-2,0.9
									c-1,0-1.6-0.5-2-0.9c-0.4-0.3-0.7-0.6-1.4-0.6c-0.7,0-1,0.3-1.4,0.6c-0.4,0.4-1,0.9-2,0.9c-1,0-1.6-0.5-2-0.9
									c-0.4-0.3-0.7-0.6-1.4-0.6c-0.7,0-1,0.3-1.4,0.6c-0.4,0.4-1,0.9-2,0.9c-1,0-1.6-0.5-2-0.9c-0.4-0.3-0.7-0.6-1.4-0.6
									c-0.7,0-1,0.3-1.4,0.6c-0.4,0.4-1,0.9-2,0.9c-1,0-1.6-0.5-2-0.9c-0.4-0.3-0.7-0.6-1.4-0.6c-0.7,0-1,0.3-1.4,0.6
									c-0.4,0.4-1,0.9-2,0.9v-1c0.7,0,1-0.3,1.4-0.6c0.4-0.4,1-0.9,2-0.9c1,0,1.6,0.5,2,0.9c0.4,0.3,0.7,0.6,1.4,0.6
									c0.7,0,1-0.3,1.4-0.6c0.4-0.4,1-0.9,2-0.9c1,0,1.6,0.5,2,0.9c0.4,0.3,0.7,0.6,1.4,0.6c0.7,0,1-0.3,1.4-0.6
									c0.4-0.4,1-0.9,2-0.9c1,0,1.6,0.5,2,0.9c0.4,0.3,0.7,0.6,1.4,0.6c0.7,0,1-0.3,1.4-0.6c0.4-0.4,1-0.9,2-0.9
									c1,0,1.6,0.5,2,0.9c0.4,0.3,0.7,0.6,1.4,0.6c0.7,0,1-0.3,1.4-0.6c0.4-0.4,1-0.9,2-0.9c1,0,1.6,0.5,2,0.9
									c0.4,0.3,0.7,0.6,1.4,0.6L42.8,25L42.8,25L42.8,25z"/>
							</g>
							<g>
								<path class="st13" d="M42.8,27.8c-1,0-1.6-0.5-2-0.9c-0.4-0.3-0.7-0.6-1.4-0.6c-0.7,0-1,0.3-1.4,0.6c-0.4,0.4-1,0.9-2,0.9
									c-1,0-1.6-0.5-2-0.9c-0.4-0.3-0.7-0.6-1.4-0.6c-0.7,0-1,0.3-1.4,0.6c-0.4,0.4-1,0.9-2,0.9c-1,0-1.6-0.5-2-0.9
									c-0.4-0.3-0.7-0.6-1.4-0.6c-0.7,0-1,0.3-1.4,0.6c-0.4,0.4-1,0.9-2,0.9c-1,0-1.6-0.5-2-0.9c-0.4-0.3-0.7-0.6-1.4-0.6
									c-0.7,0-1,0.3-1.4,0.6c-0.4,0.4-1,0.9-2,0.9c-1,0-1.6-0.5-2-0.9c-0.4-0.3-0.7-0.6-1.4-0.6c-0.7,0-1,0.3-1.4,0.6
									c-0.4,0.4-1,0.9-2,0.9v-1c0.7,0,1-0.3,1.4-0.6c0.4-0.4,1-0.9,2-0.9c1,0,1.6,0.5,2,0.9c0.4,0.3,0.7,0.6,1.4,0.6
									c0.7,0,1-0.3,1.4-0.6c0.4-0.4,1-0.9,2-0.9c1,0,1.6,0.5,2,0.9c0.4,0.3,0.7,0.6,1.4,0.6c0.7,0,1-0.3,1.4-0.6
									c0.4-0.4,1-0.9,2-0.9c1,0,1.6,0.5,2,0.9c0.4,0.3,0.7,0.6,1.4,0.6c0.7,0,1-0.3,1.4-0.6c0.4-0.4,1-0.9,2-0.9
									c1,0,1.6,0.5,2,0.9c0.4,0.3,0.7,0.6,1.4,0.6c0.7,0,1-0.3,1.4-0.6c0.4-0.4,1-0.9,2-0.9c1,0,1.6,0.5,2,0.9
									c0.4,0.3,0.7,0.6,1.4,0.6L42.8,27.8L42.8,27.8L42.8,27.8z"/>
							</g>
							<g>
								<path class="st13" d="M42.8,30.8c-1,0-1.6-0.5-2-0.9c-0.4-0.3-0.7-0.6-1.4-0.6c-0.7,0-1,0.3-1.4,0.6c-0.4,0.4-1,0.9-2,0.9
									c-1,0-1.6-0.5-2-0.9c-0.4-0.3-0.7-0.6-1.4-0.6c-0.7,0-1,0.3-1.4,0.6c-0.4,0.4-1,0.9-2,0.9c-1,0-1.6-0.5-2-0.9
									c-0.4-0.3-0.7-0.6-1.4-0.6c-0.7,0-1,0.3-1.4,0.6c-0.4,0.4-1,0.9-2,0.9c-1,0-1.6-0.5-2-0.9c-0.4-0.3-0.7-0.6-1.4-0.6
									c-0.7,0-1,0.3-1.4,0.6c-0.4,0.4-1,0.9-2,0.9c-1,0-1.6-0.5-2-0.9c-0.4-0.3-0.7-0.6-1.4-0.6c-0.7,0-1,0.3-1.4,0.6
									c-0.4,0.4-1,0.9-2,0.9v-1c0.7,0,1-0.3,1.4-0.6c0.4-0.4,1-0.9,2-0.9c1,0,1.6,0.5,2,0.9c0.4,0.3,0.7,0.6,1.4,0.6
									c0.7,0,1-0.3,1.4-0.6c0.4-0.4,1-0.9,2-0.9c1,0,1.6,0.5,2,0.9c0.4,0.3,0.7,0.6,1.4,0.6c0.7,0,1-0.3,1.4-0.6
									c0.4-0.4,1-0.9,2-0.9c1,0,1.6,0.5,2,0.9c0.4,0.3,0.7,0.6,1.4,0.6c0.7,0,1-0.3,1.4-0.6c0.4-0.4,1-0.9,2-0.9
									c1,0,1.6,0.5,2,0.9c0.4,0.3,0.7,0.6,1.4,0.6c0.7,0,1-0.3,1.4-0.6c0.4-0.4,1-0.9,2-0.9c1,0,1.6,0.5,2,0.9
									c0.4,0.3,0.7,0.6,1.4,0.6L42.8,30.8L42.8,30.8z"/>
							</g>
							<g>
								<polygon class="st14" points="31.4,17.2 25.9,17.2 25.9,17.2 20.4,17.2 13.2,21.6 25.9,21.6 25.9,21.6 38.6,21.6 								
									"/>
								<path d="M38.6,21.6H13.2l7.2-4.5h11l0,0L38.6,21.6z M13.3,21.6h25.2l-7.1-4.4h-11L13.3,21.6z"/>
							</g>
							<g>
								<path class="st9" d="M41.4,32.2c-0.4-0.4-1-0.9-2-0.9c-1,0-1.6,0.5-2,0.9c-0.4,0.3-0.7,0.6-1.4,0.6c-0.7,0-1-0.3-1.4-0.6
									c-0.4-0.4-1-0.9-2-0.9c-1,0-1.6,0.5-2,0.9c-0.4,0.3-0.7,0.6-1.4,0.6c-0.7,0-1-0.3-1.4-0.6c-0.4-0.4-1-0.9-2-0.9
									c-1,0-1.6,0.5-2,0.9c-0.4,0.3-0.7,0.6-1.4,0.6c-0.7,0-1-0.3-1.4-0.6c-0.4-0.4-1-0.9-2-0.9s-1.6,0.5-2,0.9
									c-0.4,0.3-0.7,0.6-1.4,0.6c-0.7,0-1-0.3-1.4-0.6c-0.4-0.4-1-0.9-2-0.9s-1.6,0.5-2,0.9c-0.4,0.3-0.7,0.6-1.4,0.6v0v1v8.1
									h33.7v-8.1v-1v0C42.1,32.8,41.8,32.5,41.4,32.2z"/>
							</g>
							<g>
								<polygon class="st9" points="42.4,21.6 41.7,21.6 41.7,20.5 40.7,20.5 40.7,21.6 39.9,21.6 39.9,20.5 38.8,20.5 38.8,21.6 
									38.2,21.6 38.2,20.5 37,20.5 37,21.6 36.4,21.6 36.4,20.5 35.3,20.5 35.3,21.6 34.6,21.6 34.6,20.5 33.4,20.5 33.4,21.6 
									32.8,21.6 32.8,20.5 31.6,20.5 31.6,21.6 31,21.6 31,20.5 29.9,20.5 29.9,21.6 29.2,21.6 29.2,20.5 28.1,20.5 28.1,21.6 
									27.4,21.6 27.4,20.5 26.3,20.5 26.3,21.6 25.6,21.6 25.6,20.5 24.5,20.5 24.5,21.6 23.9,21.6 23.9,20.5 22.7,20.5 
									22.7,21.6 22,21.6 22,20.5 20.9,20.5 20.9,21.6 20.2,21.6 20.2,20.5 19.1,20.5 19.1,21.6 18.5,21.6 18.5,20.5 17.3,20.5 
									17.3,21.6 16.6,21.6 16.6,20.5 15.5,20.5 15.5,21.6 14.8,21.6 14.8,20.5 13.8,20.5 13.8,21.6 13.1,21.6 13.1,20.5 12,20.5 
									12,21.6 11.2,21.6 11.2,20.5 10.1,20.5 10.1,21.6 9.1,21.6 9.1,22.5 10.2,22.5 11.9,22.5 13.7,22.5 15.5,22.5 17.3,22.5 
									19.1,22.5 20.9,22.5 22.7,22.5 24.5,22.5 26.3,22.5 28.1,22.5 29.9,22.5 31.7,22.5 33.5,22.5 35.3,22.5 37.1,22.5 
									38.9,22.5 40.6,22.5 41.7,22.5 42.4,22.5 42.8,22.5 42.8,21.6 								"/>
							</g>
							<g>
								<g>
									<path class="st14" d="M11.2,13.5c0,0,0.9,0,1.3,0.6c0.4,0.6,0.8,2.1,0.8,2.6c0,0-0.2-0.5-0.6-0.8c-0.4-0.4-0.7-0.6-1.1-1.2
										C11.2,14.2,11.2,13.5,11.2,13.5"/>
									<path d="M13.3,16.8L13.3,16.8c0,0-0.2-0.5-0.6-0.8c-0.1-0.1-0.2-0.2-0.3-0.3c-0.3-0.2-0.5-0.5-0.8-0.9
										c-0.4-0.6-0.4-1.3-0.4-1.3l0,0c0,0,0,0,0,0c0.1,0,1,0.1,1.3,0.6c0.2,0.3,0.4,0.8,0.5,1.4C13.2,16,13.3,16.5,13.3,16.8
										L13.3,16.8z M11.2,13.5c0,0.1,0,0.7,0.4,1.3c0.3,0.4,0.6,0.7,0.8,0.9c0.1,0.1,0.2,0.2,0.3,0.3c0.3,0.3,0.5,0.7,0.5,0.8
										c0-0.5-0.4-2-0.8-2.6C12.1,13.5,11.3,13.5,11.2,13.5z"/>
								</g>
								<g>
									<ellipse class="st6" cx="13.5" cy="13.4" rx="0.8" ry="0.6"/>
									<path d="M13.5,14c-0.4,0-0.8-0.3-0.8-0.6c0-0.3,0.4-0.6,0.8-0.6s0.8,0.3,0.8,0.6C14.3,13.8,13.9,14,13.5,14z M13.5,12.8
										c-0.4,0-0.8,0.3-0.8,0.6c0,0.3,0.3,0.6,0.8,0.6s0.8-0.3,0.8-0.6C14.3,13.1,13.9,12.8,13.5,12.8z"/>
								</g>
								<g>
									<path class="st14" d="M15.7,13.5c0,0-0.9,0-1.3,0.6c-0.4,0.6-0.8,2.1-0.8,2.6c0,0,0.2-0.5,0.6-0.8c0.4-0.4,0.7-0.6,1.1-1.2
										C15.7,14.2,15.7,13.5,15.7,13.5"/>
									<path d="M13.6,16.8L13.6,16.8c0-0.3,0.1-0.8,0.2-1.3c0.2-0.6,0.4-1.1,0.5-1.4c0.4-0.6,1.3-0.6,1.3-0.6c0,0,0,0,0,0l0,0
										c0,0,0,0.7-0.4,1.3c-0.3,0.4-0.6,0.7-0.8,0.9c-0.1,0.1-0.2,0.2-0.3,0.3C13.8,16.3,13.6,16.7,13.6,16.8L13.6,16.8z
										 M15.7,13.5c-0.1,0-0.9,0.1-1.3,0.6c-0.4,0.6-0.8,2.1-0.8,2.6c0-0.1,0.2-0.5,0.5-0.8c0.1-0.1,0.2-0.2,0.3-0.3
										c0.3-0.2,0.5-0.5,0.8-0.9C15.7,14.2,15.7,13.6,15.7,13.5z"/>
								</g>
								<g>
									<path class="st6" d="M14.6,13.3c-0.5,0.1-0.7,0.5-0.7,0.5c0.1-0.3-0.5-0.6-0.5-0.6s-0.6,0.3-0.5,0.6c0,0-0.2-0.4-0.7-0.5
										l0,0c0,0,0.2,0.3,0.5,0.7c0.3,0.4,0.7,0.7,0.7,0.9c0-0.2,0.3-0.6,0.6-0.9C14.4,13.7,14.6,13.4,14.6,13.3L14.6,13.3z"/>
									<path d="M13.5,15L13.5,15c0-0.2-0.3-0.5-0.6-0.8c0,0-0.1-0.1-0.1-0.1c-0.3-0.4-0.5-0.7-0.5-0.7l0,0l0.1,0l0,0
										c0.4,0.1,0.6,0.3,0.7,0.4c0-0.1,0.1-0.3,0.2-0.4c0.1-0.1,0.3-0.2,0.3-0.2l0,0l0,0c0,0,0.1,0.1,0.3,0.2
										c0.2,0.1,0.2,0.3,0.2,0.4c0.1-0.1,0.3-0.4,0.6-0.4l0,0l0.1,0l0,0c0,0-0.2,0.4-0.5,0.7c0,0-0.1,0.1-0.1,0.1
										C13.7,14.5,13.5,14.8,13.5,15z M12.3,13.4c0,0.1,0.3,0.4,0.5,0.7c0,0,0.1,0.1,0.1,0.1c0.3,0.3,0.5,0.6,0.5,0.7
										c0-0.2,0.3-0.5,0.5-0.7c0,0,0.1-0.1,0.1-0.1c0.3-0.3,0.5-0.6,0.5-0.7l0,0c-0.4,0.1-0.7,0.5-0.7,0.5l0,0l0,0
										c0.1-0.3-0.4-0.6-0.5-0.6c0,0-0.6,0.3-0.5,0.6l0,0l0,0C13,13.8,12.8,13.4,12.3,13.4L12.3,13.4z"/>
								</g>
								<g>
									<path class="st8" d="M13.4,16.9c0,0-0.2,0.3-0.2,0.9c0,0.3,0,1.5,0,1.5h0.3v-1.5C13.6,17.8,13.5,17,13.4,16.9z"/>
									<path d="M13.6,19.3h-0.3v-1.5c0-0.6,0.2-0.9,0.2-0.9l0,0l0,0c0.1,0.1,0.2,0.9,0.2,0.9L13.6,19.3z M13.3,19.3h0.3v-1.5
										c0-0.2-0.1-0.7-0.1-0.9c0,0.1-0.1,0.4-0.1,0.9V19.3z"/>
								</g>
							</g>
							<g>
								<g>
									<path class="st14" d="M39.9,15v3.7h1.8V15H39.9z M41.1,17.2h-0.6v-0.9h0.6V17.2z M41.1,16h-0.6v-0.9h0.6V16z"/>
									<path d="M41.7,18.6h-1.8V15h1.8V18.6z M39.9,18.6h1.8V15h-1.8V18.6z M41.1,17.2h-0.6v-0.9h0.6V17.2z M40.5,17.1h0.6v-0.9
										h-0.6V17.1z M41.1,16h-0.6v-0.9h0.6V16z M40.5,16h0.6v-0.9h-0.6V16z"/>
								</g>
								<g>
									<path class="st14" d="M38.5,15l0,3.6h1.4v-2.1L38.5,15z M38.9,16.1l0.6,0.4V17h-0.6V16.1z M39.6,18.2h-0.8v-0.7h0.8V18.2z"
										/>
									<path d="M39.9,18.6h-1.4l0,0l0-3.6l1.4,1.5V18.6z M38.5,18.6h1.4v-2.1L38.5,15L38.5,18.6z M39.6,18.2h-0.8v-0.7h0.8V18.2z
										 M38.8,18.2h0.8v-0.7h-0.8V18.2z M39.5,17h-0.6v-0.9l0.6,0.4V17z M38.9,17h0.5v-0.5l-0.5-0.4V17z"/>
								</g>
								<g>
									<path class="st14" d="M37.1,15l0,3.6h1.4v-2.1L37.1,15z M37.6,16.1l0.4,0.4V17h-0.4V16.1z M38.2,18.2h-0.8v-0.7h0.8
										L38.2,18.2L38.2,18.2z"/>
									<path d="M38.5,18.6h-1.4l0,0l0-3.6l0,0l1.4,1.5V18.6z M37.1,18.6h1.4v-2.1L37.2,15L37.1,18.6z M38.2,18.2h-0.8v-0.7h0.8
										V18.2z M37.4,18.2h0.8l0-0.7h-0.8V18.2z M38,17h-0.4v-0.9l0.4,0.4V17z M37.6,17H38v-0.5l-0.4-0.4V17z"/>
								</g>
								<g>
									<path class="st14" d="M35.8,15l0,3.6h1.4v-2.1L35.8,15z M36.2,16.1l0.4,0.4V17h-0.4V16.1z M36.8,18.2H36v-0.7h0.8V18.2z"/>
									<path d="M37.1,18.6h-1.4l0,0l0-3.6l0,0l1.4,1.5V18.6z M35.7,18.6h1.4v-2.1L35.8,15L35.7,18.6z M36.8,18.2H36v-0.7h0.8V18.2
										z M36,18.2h0.8v-0.7H36V18.2z M36.6,17h-0.4v-0.9l0.4,0.4V17z M36.2,17h0.4v-0.5l-0.4-0.4V17z"/>
								</g>
							</g>
							<g>
								<polygon class="st15" points="9,6.1 42.7,6.1 31.4,17.2 20.4,17.2 								"/>
							</g>
							<g>
								<g>
									<path class="st8" d="M31.4,17.2v-2.3c0-2.8-2.4-5.1-5.3-5.1c-0.1,0-0.1,0-0.2,0c-0.1,0-0.1,0-0.2,0c-2.9,0-5.3,2.3-5.3,5.1
										v2.3H31.4z"/>
									<path d="M31.4,17.2h-11v-2.3c0-1.4,0.6-2.7,1.6-3.6c1-1,2.3-1.5,3.8-1.5c0.1,0,0.1,0,0.2,0l0,0l0,0c0.1,0,0.1,0,0.2,0
										c1.4,0,2.8,0.5,3.8,1.5c1,1,1.6,2.3,1.6,3.6V17.2z M20.4,17.1h11v-2.3c0-1.4-0.6-2.6-1.5-3.6c-1-1-2.3-1.5-3.7-1.5
										c-0.1,0-0.1,0-0.2,0l0,0l0,0c-0.1,0-0.1,0-0.2,0c-1.4,0-2.7,0.5-3.7,1.5c-1,1-1.5,2.2-1.5,3.6V17.1z"/>
								</g>
								<g>
									<path d="M20.4,13.9L20.4,13.9c0,0,3.1-1,5.5-1c2.4,0,5.4,1,5.4,1l0,0c0,0-3-1-5.4-1C23.5,12.9,20.4,13.9,20.4,13.9z"/>
								</g>
								<g>
									<path d="M30.9,12.6c0,0-2.9-0.9-5-0.9s-4.9,0.9-5,0.9l0,0c0,0,2.9-0.9,5-0.9C28,11.7,30.8,12.6,30.9,12.6L30.9,12.6z"/>
								</g>
								<g>
									<path class="st8" d="M25.9,9.6v4l-2.2,0.1c0,0,0.9-0.1,1.1-0.9c0.2-0.9-0.2-2.8-0.2-2.8S24.8,9.6,25.9,9.6z"/>
									<path d="M23.6,13.7L23.6,13.7c0,0,0.9-0.1,1.1-1c0.1-0.5,0-1.2,0-1.7c-0.1-0.6-0.2-1-0.2-1.1l0,0l0,0c0,0,0.3-0.4,1.3-0.4
										l0,0v4L23.6,13.7z M24.6,10c0,0.1,0.1,0.5,0.2,1.1c0.1,0.5,0.1,1.3,0,1.7c-0.1,0.6-0.6,0.8-0.9,0.9l2-0.1V9.6
										c-0.5,0-0.8,0.1-1,0.2C24.7,9.9,24.6,10,24.6,10z"/>
								</g>
								<g>
									<path class="st8" d="M25.9,9.6v4l2.2,0.1c0,0-0.9-0.1-1.1-0.9c-0.2-0.9,0.2-2.8,0.2-2.8S26.9,9.6,25.9,9.6z"/>
									<path d="M28.1,13.7l-2.2-0.1v-4l0,0c1,0,1.3,0.4,1.3,0.4l0,0l0,0c0,0-0.1,0.5-0.2,1.1c-0.1,0.5-0.1,1.3,0,1.7
										C27.2,13.6,28.1,13.7,28.1,13.7L28.1,13.7z M25.9,13.6l2,0.1c-0.3-0.1-0.8-0.3-0.9-0.9c-0.1-0.5,0-1.2,0-1.7
										c0.1-0.5,0.2-1,0.2-1.1c0,0-0.1-0.1-0.2-0.2c-0.2-0.1-0.5-0.2-1-0.2V13.6z"/>
								</g>
								<g>
									<path class="st8" d="M20.2,15.1c0,0,3.5-0.5,5.7-0.5c2.3,0,5.8,0.5,5.8,0.5s-1.1-1.7-5.9-1.7S20.2,15.1,20.2,15.1z"/>
									<path d="M31.7,15.2L31.7,15.2c-0.1,0-3.6-0.5-5.8-0.5c-2.2,0-5.7,0.5-5.7,0.5l0,0l0,0c0.1-0.1,0.4-0.5,1.1-0.9
										c1.4-0.7,3.3-0.8,4.7-0.8c1.4,0,3.3,0.1,4.7,0.8C31.3,14.6,31.6,15,31.7,15.2L31.7,15.2z M25.9,13.5
										c-1.4,0-3.3,0.1-4.6,0.8c-0.6,0.3-0.9,0.7-1,0.8c0.3,0,3.6-0.5,5.7-0.5c2.1,0,5.5,0.5,5.8,0.5c-0.1-0.2-0.5-0.5-1.1-0.8
										C29.2,13.6,27.2,13.5,25.9,13.5z"/>
								</g>
							</g>
						</g>
					</g>
				</g>
			</g>
		</g>
		<g>
			<path class="st8" d="M10.5,33.1c-0.8-1.5-1-1.6-1.2-1.9c-0.5-0.7-1.6-1.2-2.7-2.4c-1.1-1.2-2.5-2.5-2.6-3.4c0,0-0.2,1.6,0,2.3
				c0.2,0.7,0.5,2.6,0.5,2.6s-1.5,0-2.2-0.5c-0.7-0.5-1.5-0.7-1.5-1.2c0,0,0.7,3.1,2.2,5c1.5,2,3.4,3,4.9,3.1
				C9.3,36.6,10.5,33.1,10.5,33.1z"/>
			<path d="M7.9,36.6C7.9,36.6,7.9,36.6,7.9,36.6c-1.6,0-3.4-1.2-4.9-3.1c-1.3-1.7-2-4.2-2.1-4.9c0-0.1,0-0.1,0-0.2l0,0
				c0,0,0,0.1,0,0.2c0.1,0.3,0.5,0.5,0.9,0.7c0.2,0.1,0.4,0.2,0.6,0.4c0.3,0.2,0.9,0.4,1.3,0.4c0.4,0.1,0.7,0.1,0.8,0.1
				c0-0.2-0.3-1.9-0.5-2.6c-0.2-0.7,0-2.2,0-2.3l0,0c0,0.8,1.2,2,2.3,3c0.1,0.1,0.2,0.2,0.3,0.3c0.6,0.6,1.1,1,1.6,1.4
				c0.5,0.4,0.8,0.7,1.1,1c0,0.1,0.1,0.1,0.1,0.2c0.2,0.2,0.4,0.5,1.1,1.7l0,0l0,0c0,0-0.3,0.9-0.8,1.8C9.3,35.6,8.6,36.6,7.9,36.6z
				 M0.9,28.8c0.2,0.8,0.9,3.2,2.1,4.8c1.4,1.9,3.3,3,4.9,3.1c0,0,0,0,0,0c0.4,0,1.1-0.3,1.9-1.8c0.5-0.8,0.8-1.7,0.8-1.8
				c-0.7-1.2-0.9-1.5-1.1-1.7c0-0.1-0.1-0.1-0.1-0.2c-0.3-0.3-0.6-0.6-1.1-1c-0.5-0.4-1-0.8-1.6-1.4c-0.1-0.1-0.2-0.2-0.3-0.3
				c-1-1-2.1-2.2-2.2-3c0,0.4-0.1,1.6,0,2.1c0.2,0.7,0.5,2.6,0.5,2.6l0,0l0,0c0,0-0.4,0-0.8-0.1c-0.4-0.1-1-0.2-1.3-0.4
				c-0.2-0.1-0.4-0.3-0.6-0.4C1.4,29.2,1,29,0.9,28.8z"/>
		</g>
		<g>
			<path class="st8" d="M8.1,34.4l1.3-0.5c0,0,1-0.5,1.2-0.9c0,0,0.3,0.5,0.1,0.9c-0.3,0.4-0.8,0.5-0.9,1.5c-0.1,1,0.9,4.1,0.9,4.1
				L6.5,37l0.6-2L8.1,34.4z"/>
			<path d="M10.6,39.6L6.4,37l0.6-2l0,0l1-0.6l1.3-0.5c0,0,1-0.5,1.2-0.9l0,0l0,0c0,0,0.3,0.6,0.1,0.9c-0.1,0.1-0.2,0.2-0.3,0.3
				c-0.3,0.2-0.6,0.5-0.7,1.2C9.6,36.4,10.5,39.5,10.6,39.6L10.6,39.6z M6.5,37l4.1,2.5c-0.1-0.3-1-3.1-0.8-4c0.1-0.7,0.4-1,0.7-1.2
				c0.1-0.1,0.2-0.2,0.3-0.3c0.2-0.3,0-0.8-0.1-0.9c-0.2,0.3-1.1,0.8-1.2,0.9l-1.3,0.5l-1,0.6L6.5,37z"/>
		</g>
		<g>
			<path class="st8" d="M41.4,33.1c0.8-1.5,1-1.6,1.2-1.9c0.5-0.7,1.6-1.2,2.7-2.4c1.1-1.2,2.5-2.5,2.6-3.4c0,0,0.2,1.6,0,2.3
				c-0.2,0.7-0.5,2.6-0.5,2.6s1.5,0,2.2-0.5c0.7-0.5,1.5-0.7,1.5-1.2c0,0-0.7,3.1-2.2,5c-1.5,2-3.4,3-4.9,3.1
				C42.6,36.6,41.4,33.1,41.4,33.1z"/>
			<path d="M44.1,36.6c-0.8,0-1.5-1-1.9-1.8c-0.5-0.9-0.8-1.8-0.8-1.8l0,0l0,0c0.7-1.2,0.9-1.5,1.1-1.7c0-0.1,0.1-0.1,0.1-0.2
				c0.3-0.3,0.6-0.6,1.1-1c0.5-0.4,1-0.8,1.6-1.4c0.1-0.1,0.2-0.2,0.3-0.3c1-1.1,2.2-2.3,2.3-3l0,0c0,0,0.2,1.6,0,2.3
				c-0.2,0.7-0.5,2.4-0.5,2.6c0.1,0,0.4,0,0.8-0.1c0.4-0.1,1-0.2,1.3-0.4c0.2-0.1,0.4-0.3,0.6-0.4c0.4-0.2,0.8-0.4,0.9-0.7
				c0-0.1,0-0.2,0-0.2l0,0c0,0.1,0,0.1,0,0.2c-0.2,0.7-0.8,3.2-2.1,4.9C47.5,35.4,45.6,36.6,44.1,36.6
				C44.1,36.6,44.1,36.6,44.1,36.6z M41.4,33.1c0,0.1,0.3,0.9,0.8,1.8c0.4,0.8,1.1,1.8,1.9,1.8c0,0,0,0,0,0c1.6,0,3.4-1.2,4.9-3.1
				c1.2-1.6,1.9-4,2.1-4.8c-0.1,0.2-0.5,0.4-0.8,0.6c-0.2,0.1-0.4,0.2-0.6,0.4c-0.3,0.2-0.9,0.4-1.3,0.4c-0.5,0.1-0.8,0.1-0.8,0.1
				l0,0l0,0c0,0,0.3-1.9,0.5-2.6c0.2-0.6,0-1.8,0-2.1c-0.1,0.8-1.3,1.9-2.2,3c-0.1,0.1-0.2,0.2-0.3,0.3c-0.6,0.6-1.1,1-1.6,1.4
				c-0.5,0.4-0.8,0.7-1.1,1c0,0.1-0.1,0.1-0.1,0.2C42.3,31.5,42,31.8,41.4,33.1z"/>
		</g>
		<g>
			<path class="st8" d="M43.9,34.4l-1.3-0.5c0,0-1-0.5-1.2-0.9c0,0-0.3,0.5-0.1,0.9c0.3,0.4,0.8,0.5,0.9,1.5c0.1,1-0.9,4.1-0.9,4.1
				l4.1-2.6l-0.6-2L43.9,34.4z"/>
			<path d="M41.4,39.6L41.4,39.6c0-0.1,1-3.1,0.9-4.1c-0.1-0.7-0.4-1-0.7-1.2c-0.1-0.1-0.2-0.2-0.3-0.3c-0.3-0.4,0.1-0.9,0.1-0.9
				l0,0l0,0c0.2,0.3,1.2,0.9,1.2,0.9l1.3,0.5l1,0.6l0,0l0.6,2l0,0L41.4,39.6z M41.4,33.1c-0.1,0.1-0.3,0.6-0.1,0.9
				c0.1,0.1,0.2,0.2,0.3,0.3c0.3,0.2,0.6,0.5,0.7,1.2c0.1,0.9-0.7,3.7-0.8,4l4.1-2.5l-0.6-2l-1-0.6l-1.3-0.5
				C42.5,33.9,41.6,33.4,41.4,33.1z"/>
		</g>
		<g>
			<path class="st8" d="M46,37.5c0-1.7-0.8-2.6-1.1-2.9c-0.4-0.3-1-0.2-1-0.2c0.6,0.4,0.6,1,0.6,1c0,4.7-16.2,6.9-18.5,6.9
				c-2,0-18.5-2.3-18.5-6.9c0,0,0.1-0.6,0.6-1c0,0-0.7-0.1-1,0.2c-0.4,0.3-1.1,1.2-1.1,2.9c0,1.7,0.3,2.6,0.3,3.5s-0.1,1.1-0.1,1.1
				S12.2,49,26,49v0c0,0,0,0,0,0c0,0,0,0,0,0v0c13.8,0,19.8-6.8,19.8-6.8s-0.1-0.2-0.1-1.1C45.7,40.1,46,39.2,46,37.5z"/>
			<path d="M26,49L26,49L26,49L26,49c-3.2,0-6.2-0.4-8.9-1.1c-2.2-0.6-4.3-1.4-6.2-2.4c-1.7-0.9-2.9-1.8-3.6-2.4
				c-0.8-0.6-1.1-1.1-1.2-1.1l0,0l0,0c0,0,0.1-0.2,0.1-1.1c0-0.4-0.1-0.7-0.1-1.2c-0.1-0.6-0.2-1.3-0.2-2.3c0-1.9,0.9-2.8,1.1-2.9
				c0.4-0.3,1-0.2,1-0.2l0,0l0,0c-0.6,0.4-0.6,1-0.6,1c0,1.1,0.9,2.1,2.6,3c1.4,0.8,3.4,1.5,5.9,2.1c4.2,1.1,8.9,1.7,10,1.7
				c1.1,0,5.7-0.5,10.2-1.7c2.5-0.6,4.4-1.4,5.8-2.1c1.7-0.9,2.6-2,2.6-3c0,0-0.1-0.6-0.6-1l0,0l0,0c0,0,0.7-0.1,1,0.2
				c0.2,0.1,1.1,1,1.1,2.9c0,1-0.1,1.7-0.2,2.3c-0.1,0.4-0.1,0.8-0.1,1.2c0,0.9,0.1,1.1,0.1,1.1l0,0l0,0c0,0-0.4,0.4-1.2,1.1
				c-0.7,0.6-1.9,1.5-3.6,2.4c-1.9,1-3.9,1.8-6.2,2.4C32.1,48.6,29.1,49,26,49L26,49z M6.2,42.1c0,0,0.4,0.5,1.1,1.1
				c0.7,0.6,1.9,1.5,3.6,2.3c1.9,1,3.9,1.8,6.1,2.4c2.8,0.7,5.8,1.1,8.9,1.1h0c3.1,0,6.1-0.4,8.9-1.1c2.2-0.6,4.3-1.4,6.1-2.4
				c1.7-0.9,2.9-1.8,3.6-2.3c0.7-0.6,1.1-1,1.1-1.1c0,0-0.1-0.3-0.1-1.1c0-0.4,0.1-0.7,0.1-1.2c0.1-0.6,0.2-1.3,0.2-2.3
				c0-1.9-0.9-2.7-1.1-2.9c-0.3-0.2-0.8-0.2-1-0.2c0.5,0.4,0.6,1,0.6,1c0,1.1-0.9,2.1-2.6,3.1c-1.4,0.8-3.4,1.5-5.8,2.1
				c-4.5,1.2-9.1,1.7-10.2,1.7c-1.1,0-5.8-0.6-10-1.7c-2.5-0.6-4.5-1.4-5.9-2.2c-1.7-0.9-2.6-2-2.6-3c0,0,0.1-0.6,0.6-1
				c-0.1,0-0.7,0-1,0.2c-0.2,0.1-1.1,1-1.1,2.9c0,1,0.1,1.7,0.2,2.3c0.1,0.4,0.1,0.8,0.1,1.2C6.3,41.8,6.2,42.1,6.2,42.1z"/>
		</g>
		<g>
			<g>
				<g>
					<path d="M7.4,38.2c0.2,0.1,0.2,0.2,0.4,0.3c0,0.7,0.1,1.3,0.1,2c0.1-0.6,0.1-1.2,0.2-1.8c0.2,0.1,0.2,0.1,0.4,0.2
						c0.1,0.7,0.1,1.3,0.2,2c0-0.6,0.1-1.2,0.1-1.8c0.2,0.1,0.2,0.1,0.4,0.2c-0.1,1.1-0.2,2.1-0.3,3.2c-0.2-0.1-0.2-0.1-0.4-0.2
						c-0.1-0.8-0.2-1.5-0.2-2.3c-0.1,0.7-0.2,1.3-0.2,2c-0.2-0.1-0.2-0.2-0.4-0.3C7.6,40.5,7.5,39.4,7.4,38.2z"/>
				</g>
				<g>
					<path d="M9.4,39.4c0.2,0.1,0.2,0.1,0.4,0.2c0,1.1,0,2.2,0,3.4c-0.2-0.1-0.2-0.1-0.4-0.2C9.4,41.7,9.4,40.5,9.4,39.4z"/>
				</g>
				<g>
					<path d="M10.1,39.8c0.3,0.1,0.5,0.3,0.8,0.4c0.1,0.1,0.2,0.2,0.3,0.4c0.1,0.2,0.1,0.4,0.1,0.6c0,0.2,0,0.4-0.1,0.5
						c0,0.1-0.1,0.1-0.1,0.2c0,0,0.2,0.2,0.2,0.4c0,0.2,0.1,0.4,0.1,0.6c0,0.2,0,0.3,0,0.4c0,0.1-0.1,0.2-0.1,0.3c0,0-0.1,0-0.2,0
						c-0.1,0-0.2,0-0.2-0.1c-0.2-0.1-0.5-0.3-0.7-0.4C10.1,42.1,10.1,40.9,10.1,39.8z M10.6,41.4c0.1,0,0.1,0.1,0.2,0.1
						c0.1,0,0.1,0,0.1,0c0,0,0-0.1,0-0.2c0-0.1,0-0.2,0-0.2c0-0.1-0.1-0.1-0.1-0.2c-0.1,0-0.1-0.1-0.2-0.1
						C10.6,41,10.6,41.1,10.6,41.4z M10.6,42.7c0.1,0,0.1,0.1,0.2,0.1c0.1,0,0.1,0,0.2,0c0,0,0-0.1,0-0.2c0-0.1,0-0.2,0-0.3
						c0-0.1-0.1-0.1-0.2-0.2c-0.1,0-0.1-0.1-0.2-0.1C10.6,42.2,10.6,42.5,10.6,42.7z"/>
				</g>
				<g>
					<path d="M12.4,43.8c-0.2-0.1-0.3-0.1-0.5-0.2c0,0.2,0,0.3-0.1,0.5c-0.2-0.1-0.3-0.1-0.4-0.2c0.2-1,0.3-2.1,0.5-3.1
						c0.2,0.1,0.3,0.1,0.5,0.2c0.2,1.2,0.3,2.4,0.5,3.6c-0.2-0.1-0.3-0.1-0.5-0.2C12.5,44.1,12.5,44,12.4,43.8z M12.3,43
						c-0.1-0.4-0.1-0.9-0.2-1.3c-0.1,0.4-0.1,0.8-0.2,1.1C12.2,42.9,12.2,43,12.3,43z"/>
				</g>
				<g>
					<path d="M13,41.2c0.2,0.1,0.2,0.1,0.4,0.2c0,0.6,0.1,1.3,0.1,1.9c0.1-0.6,0.1-1.2,0.2-1.8c0.2,0.1,0.2,0.1,0.4,0.2
						c0.1,0.7,0.1,1.3,0.2,2c0.1-0.6,0.1-1.2,0.2-1.8c0.2,0.1,0.2,0.1,0.4,0.2c-0.1,1.1-0.2,2.2-0.3,3.2c-0.2-0.1-0.3-0.1-0.4-0.2
						c-0.1-0.7-0.2-1.5-0.2-2.2c-0.1,0.7-0.2,1.3-0.2,2c-0.2-0.1-0.3-0.1-0.4-0.2C13.2,43.5,13.1,42.4,13,41.2z"/>
				</g>
				<g>
					<path d="M16,45.1c-0.2-0.1-0.3-0.1-0.5-0.2c0,0.2,0,0.3-0.1,0.5c-0.2-0.1-0.3-0.1-0.5-0.2c0.2-1.1,0.4-2.1,0.5-3.2
						c0.2,0.1,0.3,0.1,0.5,0.2c0.2,1.2,0.4,2.4,0.5,3.5c-0.2-0.1-0.3-0.1-0.5-0.1C16,45.5,16,45.4,16,45.1z M15.9,44.4
						c-0.1-0.4-0.1-0.8-0.2-1.3c-0.1,0.4-0.1,0.8-0.2,1.2C15.7,44.3,15.8,44.3,15.9,44.4z"/>
				</g>
				<g>
					<path d="M17.3,42.7c0.2,0.1,0.4,0.1,0.6,0.2c0.1,0.7,0.2,1.4,0.2,2.1c0.1-0.7,0.2-1.3,0.2-2c0.2,0.1,0.4,0.1,0.6,0.1
						c0,1.1,0,2.2,0,3.4c-0.1,0-0.2,0-0.4-0.1c0-0.9,0-1.7,0-2.6c-0.1,0.8-0.2,1.7-0.3,2.5c-0.1,0-0.2,0-0.3-0.1
						c-0.1-0.9-0.2-1.8-0.3-2.6c0,0.9,0,1.7,0,2.6c-0.1,0-0.2-0.1-0.4-0.1C17.3,45,17.3,43.8,17.3,42.7z"/>
				</g>
				<g>
					<path d="M20.2,43.4c0.2,0,0.3,0,0.5,0.1c0,0.7,0,1.3,0,2c0,0.2,0,0.4,0,0.6c0,0.2-0.1,0.3-0.1,0.4c-0.1,0.1-0.1,0.2-0.2,0.2
						c-0.1,0.1-0.2,0.1-0.3,0.1c-0.1,0-0.2,0-0.2-0.1c-0.1,0-0.2-0.1-0.2-0.2c-0.1-0.1-0.1-0.2-0.2-0.3c0-0.1-0.1-0.3-0.1-0.4
						c0-0.2,0-0.4,0-0.6c0-0.7,0-1.3,0-2c0.2,0,0.3,0.1,0.5,0.1c0,0.7,0,1.4,0,2.1c0,0.2,0,0.3,0.1,0.4c0,0.1,0.1,0.2,0.2,0.2
						c0.1,0,0.1,0,0.2-0.1c0-0.1,0.1-0.2,0.1-0.4C20.2,44.7,20.2,44.1,20.2,43.4z"/>
				</g>
				<g>
					<path d="M21,43.5c0.2,0,0.3,0,0.5,0.1c0,0.4,0,0.8,0,1.3c0.2-0.4,0.3-0.8,0.5-1.2c0.2,0,0.4,0,0.6,0.1
						c-0.2,0.4-0.4,0.8-0.5,1.2c0.2,0.7,0.4,1.4,0.6,2.2c-0.2,0-0.3,0-0.6-0.1c-0.1-0.5-0.2-0.9-0.3-1.4c-0.1,0.2-0.1,0.3-0.2,0.5
						c0,0.3,0,0.5,0,0.8c-0.2,0-0.3,0-0.5-0.1C21,45.7,21,44.6,21,43.5z"/>
				</g>
				<g>
					<path d="M22.6,43.7c0.5,0,0.9,0.1,1.4,0.1c0,0.3,0,0.6,0,0.8c-0.2,0-0.3,0-0.5,0c0,0.8,0,1.7,0,2.5c-0.2,0-0.3,0-0.5,0
						c0-0.8,0-1.7,0-2.5c-0.2,0-0.3,0-0.5,0C22.6,44.3,22.6,44,22.6,43.7z"/>
				</g>
				<g>
					<path d="M24.2,43.8c0.2,0,0.3,0,0.5,0c0,1.1,0,2.2,0,3.4c-0.2,0-0.3,0-0.5,0C24.2,46.1,24.2,44.9,24.2,43.8z"/>
				</g>
				<g>
					<path d="M25.7,43.9c0.2,0,0.3,0,0.5,0c0,0.4,0,0.8,0,1.3c0.2-0.4,0.3-0.9,0.5-1.3c0.2,0,0.4,0,0.6,0c-0.2,0.4-0.4,0.9-0.5,1.3
						c0.2,0.7,0.4,1.4,0.6,2.1c-0.2,0-0.3,0-0.6,0c-0.1-0.5-0.2-0.9-0.3-1.4c-0.1,0.2-0.1,0.3-0.2,0.6c0,0.3,0,0.5,0,0.8
						c-0.2,0-0.3,0-0.5,0C25.7,46.1,25.7,45,25.7,43.9z"/>
				</g>
				<g>
					<path d="M27.5,43.8c0.4,0,0.8,0,1.2-0.1c0,0.2,0,0.5,0,0.7c-0.3,0-0.5,0-0.8,0.1c0,0.2,0,0.3,0,0.5c0.2,0,0.5,0,0.7-0.1
						c0,0.2,0,0.5,0,0.7c-0.2,0-0.5,0-0.7,0.1c0,0.3,0,0.4,0,0.7c0.3,0,0.5,0,0.8-0.1c0,0.3,0,0.5,0,0.8c-0.4,0-0.8,0.1-1.3,0.1
						C27.5,46.1,27.5,45,27.5,43.8z"/>
				</g>
				<g>
					<path d="M29,47.1c0-1.1,0-2.2,0-3.4c0.3,0,0.5-0.1,0.8-0.1c0.1,0,0.3,0,0.3,0c0.1,0,0.1,0.1,0.2,0.3c0,0.1,0.1,0.3,0.1,0.5
						c0,0.2,0,0.3-0.1,0.5c0,0.1-0.1,0.3-0.1,0.3c0,0.1-0.2,0.2-0.2,0.2c0,0,0.1,0.1,0.1,0.1c0,0,0,0.1,0.1,0.2
						c0,0.1,0.1,0.2,0.1,0.2c0.1,0.3,0.1,0.6,0.2,0.9c-0.2,0-0.3,0-0.5,0.1c-0.1-0.3-0.2-0.7-0.2-1c0-0.1-0.1-0.2-0.1-0.2
						c0,0-0.1-0.1-0.1-0.1c0,0,0,0,0,0c0,0.5,0,0.9,0,1.4C29.3,47.1,29.2,47.1,29,47.1z M29.4,45c0.1,0,0.1,0,0.2,0
						c0,0,0.1,0,0.1-0.1c0,0,0.1-0.1,0.1-0.1c0-0.1,0-0.1,0-0.2c0-0.1,0-0.2,0-0.2c0-0.1-0.1-0.1-0.2-0.1c-0.1,0-0.1,0-0.2,0
						C29.4,44.6,29.4,44.8,29.4,45z"/>
				</g>
				<g>
					<path d="M30.5,43.6c0.5-0.1,0.9-0.1,1.4-0.2c0,0.3,0,0.6,0,0.8c-0.2,0-0.3,0.1-0.5,0.1c0,0.8,0,1.7,0,2.5c-0.2,0-0.3,0-0.5,0.1
						c0-0.8,0-1.7,0-2.5c-0.2,0-0.3,0-0.5,0.1C30.5,44.1,30.5,43.8,30.5,43.6z"/>
				</g>
				<g>
					<path d="M32.8,45.9c-0.2,0-0.3,0.1-0.5,0.1c0,0.2,0,0.3-0.1,0.6c-0.2,0-0.3,0.1-0.5,0.1c0.2-1.2,0.4-2.3,0.6-3.5
						c0.2,0,0.3-0.1,0.5-0.1c0.2,1.1,0.4,2.2,0.6,3.2c-0.2,0-0.3,0.1-0.5,0.1C32.9,46.3,32.9,46.2,32.8,45.9z M32.7,45.2
						c-0.1-0.4-0.1-0.8-0.2-1.2c-0.1,0.4-0.1,0.8-0.2,1.2C32.6,45.3,32.6,45.3,32.7,45.2z"/>
				</g>
				<g>
					<path d="M34.2,46.2c0-1.1,0-2.2,0-3.4c0.3-0.1,0.5-0.1,0.8-0.2c0.1,0,0.2,0,0.3,0s0.1,0.1,0.2,0.3c0,0.1,0.1,0.3,0.1,0.5
						c0,0.2,0,0.4-0.1,0.5c0,0.1-0.1,0.3-0.1,0.4c0,0.1-0.2,0.2-0.2,0.2c0,0,0.1,0.1,0.1,0.1c0,0,0,0.1,0.1,0.2
						c0,0.1,0.1,0.1,0.1,0.2c0.1,0.3,0.1,0.6,0.2,0.9c-0.2,0.1-0.3,0.1-0.5,0.2c-0.1-0.3-0.2-0.6-0.2-1c0-0.1-0.1-0.2-0.1-0.2
						c0,0-0.1-0.1-0.1,0c0,0,0,0,0,0c0,0.5,0,0.9,0,1.4C34.5,46.1,34.4,46.1,34.2,46.2z M34.7,44.1c0.1,0,0.1,0,0.2-0.1
						c0,0,0.1,0,0.1-0.1c0,0,0.1-0.1,0.1-0.1c0-0.1,0-0.1,0-0.2c0-0.1,0-0.2,0-0.2c0,0-0.1-0.1-0.2,0c-0.1,0-0.1,0-0.2,0.1
						C34.7,43.6,34.7,43.8,34.7,44.1z"/>
				</g>
				<g>
					<path d="M36.7,44.9c-0.2,0.1-0.3,0.1-0.5,0.2c0,0.2,0,0.3-0.1,0.6c-0.2,0.1-0.3,0.1-0.5,0.1c0.2-1.2,0.4-2.4,0.5-3.5
						c0.2-0.1,0.3-0.1,0.5-0.2c0.2,1.1,0.4,2.1,0.5,3.2c-0.2,0.1-0.3,0.1-0.5,0.2C36.7,45.2,36.7,45.1,36.7,44.9z M36.6,44.2
						c-0.1-0.4-0.1-0.8-0.2-1.2c-0.1,0.4-0.1,0.8-0.2,1.3C36.4,44.3,36.5,44.2,36.6,44.2z"/>
				</g>
				<g>
					<path d="M37.3,41.8c0.2-0.1,0.3-0.1,0.5-0.2c0,0.4,0,0.8,0,1.2c0.2-0.1,0.3-0.1,0.5-0.2c0-0.4,0-0.8,0-1.2
						c0.2-0.1,0.3-0.1,0.4-0.2c0,1.1,0,2.2,0,3.4c-0.2,0.1-0.3,0.1-0.4,0.2c0-0.5,0-0.9,0-1.4c-0.2,0.1-0.3,0.1-0.5,0.2
						c0,0.5,0,0.9,0,1.4c-0.2,0.1-0.3,0.1-0.5,0.2C37.3,44.1,37.3,43,37.3,41.8z"/>
				</g>
				<g>
					<path d="M39.9,43.6c-0.2,0.1-0.3,0.1-0.5,0.2c0,0.2,0,0.4-0.1,0.6c-0.2,0.1-0.3,0.1-0.4,0.2c0.2-1.2,0.4-2.4,0.5-3.6
						c0.2-0.1,0.3-0.1,0.5-0.2c0.2,1,0.3,2.1,0.5,3.1c-0.2,0.1-0.3,0.1-0.4,0.2C39.9,43.9,39.9,43.8,39.9,43.6z M39.8,42.9
						c-0.1-0.4-0.1-0.8-0.2-1.1c-0.1,0.4-0.1,0.9-0.2,1.3C39.6,43,39.6,43,39.8,42.9z"/>
				</g>
				<g>
					<path d="M40.5,43.8c0-1.1,0-2.2,0-3.4c0.2-0.1,0.5-0.2,0.7-0.4c0.1-0.1,0.2-0.1,0.3-0.1c0.1,0,0.1,0.1,0.2,0.2
						c0,0.1,0.1,0.3,0.1,0.5c0,0.2,0,0.4,0,0.5c0,0.2-0.1,0.3-0.1,0.4c0,0.1-0.1,0.2-0.1,0.2c0,0,0.1,0,0.1,0.1c0,0,0,0.1,0.1,0.1
						c0,0.1,0,0.1,0.1,0.2c0.1,0.3,0.1,0.6,0.2,0.9c-0.2,0.1-0.3,0.2-0.5,0.3c-0.1-0.3-0.1-0.6-0.2-0.9c0-0.1-0.1-0.2-0.1-0.2
						c0,0-0.1,0-0.1,0c0,0,0,0,0,0c0,0.5,0,0.9,0,1.4C40.8,43.7,40.7,43.8,40.5,43.8z M40.9,41.6c0.1,0,0.1-0.1,0.2-0.1
						c0,0,0.1,0,0.1-0.1c0,0,0.1-0.1,0.1-0.1c0-0.1,0-0.1,0-0.2c0-0.1,0-0.2,0-0.2c0,0-0.1,0-0.2,0c-0.1,0-0.1,0.1-0.2,0.1
						C40.9,41.2,40.9,41.4,40.9,41.6z"/>
				</g>
				<g>
					<path d="M42.5,39.4c0.2-0.1,0.2-0.1,0.4-0.2c0,0.6,0,1.2,0,1.8c0,0.3,0,0.6,0,0.9c0,0.2-0.1,0.4-0.2,0.6
						c-0.1,0.2-0.2,0.3-0.3,0.4c-0.1,0.1-0.2,0.1-0.3,0c-0.1,0-0.1-0.2-0.2-0.3c0-0.2-0.1-0.4-0.1-0.6c0.2-0.1,0.2-0.2,0.4-0.4
						c0,0.1,0,0.3,0,0.3c0,0.1,0,0.1,0,0.1c0,0,0,0,0.1,0c0,0,0.1-0.1,0.1-0.2c0-0.1,0-0.3,0-0.5C42.5,40.8,42.5,40.1,42.5,39.4z"/>
				</g>
				<g>
					<path d="M44,41.3c-0.2,0.1-0.3,0.2-0.5,0.3c0,0.2,0,0.4-0.1,0.6c-0.2,0.1-0.2,0.2-0.4,0.3c0.2-1.2,0.3-2.4,0.5-3.7
						c0.2-0.1,0.3-0.2,0.4-0.3c0.2,1,0.3,2,0.5,3c-0.2,0.1-0.3,0.2-0.4,0.3C44,41.6,44,41.5,44,41.3z M43.9,40.6
						c0-0.4-0.1-0.7-0.1-1.1c0,0.4-0.1,0.9-0.1,1.3C43.7,40.7,43.8,40.7,43.9,40.6z"/>
				</g>
			</g>
		</g>
	</g>
	<g>
		<path class="st14" d="M62.1,31.2c0,0.5-0.2,0.9-0.6,1.2c-0.3,0.3-0.8,0.4-1.3,0.4l0,0.8c0,0,0,0.1-0.1,0.1l-1.1,0.1
			c0,0-0.1,0-0.1-0.1l0-4.1c0,0,0-0.1,0.1-0.1c0.5,0,1,0,1.4,0.1c0.6,0.1,1,0.2,1.2,0.4C62,30.3,62.1,30.7,62.1,31.2z M61,31.3
			c0-0.2-0.1-0.4-0.2-0.5c-0.1-0.1-0.3-0.1-0.5-0.1l0,1.2C60.8,31.8,61,31.6,61,31.3z"/>
		<path class="st14" d="M65.2,33.5C65.2,33.6,65.1,33.6,65.2,33.5l-2.7,0.1c0,0-0.1,0-0.1-0.1v-3.8c0,0,0-0.1,0.1-0.1h2.7
			c0,0,0.1,0,0.1,0.1v0.8c0,0,0,0.1-0.1,0.1h-1.6v0.6h1.2c0,0,0.1,0,0.1,0.1V32c0,0,0,0.1-0.1,0.1h-1.2l0,0.6h1.6c0,0,0.1,0,0.1,0.1
			V33.5z"/>
		<path class="st14" d="M68.7,29.9l0,3.8c0,0,0,0.1-0.1,0.1l-1,0c0,0-0.1,0-0.1,0l-1-2.2l0,2.2c0,0,0,0.1-0.1,0.1l-0.9,0
			c0,0-0.1,0-0.1-0.1v-3.8c0,0,0-0.1,0.1-0.1l1,0c0,0,0,0,0.1,0l1,2.2v-2.2c0,0,0-0.1,0.1-0.1L68.7,29.9
			C68.7,29.8,68.7,29.8,68.7,29.9z"/>
		<path class="st14" d="M71.9,33.5C71.9,33.6,71.9,33.6,71.9,33.5l-2.7,0.1c0,0-0.1,0-0.1-0.1v-3.8c0,0,0-0.1,0.1-0.1h2.7
			c0,0,0.1,0,0.1,0.1v0.8c0,0,0,0.1-0.1,0.1h-1.6v0.6h1.2c0,0,0.1,0,0.1,0.1V32c0,0,0,0.1-0.1,0.1h-1.2l0,0.6h1.6c0,0,0.1,0,0.1,0.1
			V33.5z"/>
		<path class="st14" d="M75.4,33.7C75.4,33.7,75.4,33.8,75.4,33.7l-1.2,0.1c0,0,0,0-0.1,0l-0.8-1.1l0,0.9c0,0,0,0.1-0.1,0.1
			l-1.1,0.1c0,0-0.1,0-0.1-0.1l0-3.9c0,0,0-0.1,0.1-0.1c0.1,0,0.4-0.1,0.9-0.1c0.8,0,1.4,0.2,1.7,0.6c0.2,0.3,0.4,0.6,0.4,1
			c0,0.3-0.1,0.5-0.2,0.7c-0.1,0.2-0.3,0.4-0.5,0.6L75.4,33.7C75.4,33.7,75.4,33.7,75.4,33.7z M74,31.4c0-0.2-0.1-0.3-0.2-0.4
			c-0.1-0.1-0.3-0.1-0.4-0.1l0,1.1C73.8,31.9,74,31.7,74,31.4z"/>
		<path class="st14" d="M76.9,29.8l-0.1,3.8c0,0,0,0.1-0.1,0.1l-1,0c0,0,0,0,0,0c0,0,0,0,0,0l0.1-3.8c0,0,0-0.1,0.1-0.1L76.9,29.8
			C76.9,29.8,76.9,29.8,76.9,29.8z"/>
		<path class="st14" d="M81.4,33.5C81.4,33.6,81.3,33.6,81.4,33.5l-1,0.1c0,0-0.1,0-0.1-0.1l0-2.2l-0.6,2.1c0,0,0,0-0.1,0H79
			c0,0-0.1,0-0.1,0l-0.6-2.1l0,2.2c0,0,0,0.1-0.1,0.1l-0.9,0c0,0-0.1,0-0.1-0.1l0.2-3.7c0,0,0-0.1,0.1-0.1l1.1,0c0,0,0.1,0,0.1,0
			l0.7,2.1l0.7-2.1c0,0,0,0,0.1,0l1.1,0c0,0,0.1,0,0.1,0.1L81.4,33.5z"/>
		<path class="st14" d="M85.1,33.8C85.1,33.8,85.1,33.8,85.1,33.8L84,33.8c0,0-0.1,0-0.1-0.1L83.8,33h-0.9l-0.1,0.7
			c0,0,0,0.1-0.1,0.1h-1.1c0,0-0.1,0-0.1-0.1v0l0.9-3.8c0,0,0-0.1,0.1-0.1h1.7c0,0,0.1,0,0.1,0.1L85.1,33.8z M83.6,32.1l-0.2-1.4
			l-0.3,1.4H83.6z"/>
		<path class="st14" d="M88.7,33.8C88.7,33.8,88.7,33.8,88.7,33.8l-1.2,0.1c0,0-0.1,0-0.1-0.1L87.4,33h-0.9l-0.1,0.7
			c0,0,0,0.1-0.1,0.1h-1.1c0,0-0.1,0-0.1-0.1v0l0.9-3.8c0,0,0-0.1,0.1-0.1h1.7c0,0,0.1,0,0.1,0.1L88.7,33.8z M87.2,32.1L87,30.7
			l-0.3,1.4H87.2z"/>
		<path class="st14" d="M92.2,29.9l0,3.8c0,0,0,0.1-0.1,0.1l-1,0c0,0-0.1,0-0.1,0l-1-2.2l0,2.2c0,0,0,0.1-0.1,0.1l-0.9,0
			c0,0-0.1,0-0.1-0.1v-3.8c0,0,0-0.1,0.1-0.1l1,0c0,0,0,0,0.1,0l1,2.2v-2.2c0,0,0-0.1,0.1-0.1L92.2,29.9
			C92.2,29.8,92.2,29.8,92.2,29.9z"/>
		<path class="st14" d="M97.6,31.2c0,0.5-0.2,0.9-0.6,1.2c-0.3,0.3-0.8,0.4-1.3,0.4l0,0.8c0,0,0,0.1-0.1,0.1l-1.1,0.1
			c0,0-0.1,0-0.1-0.1l0-4.1c0,0,0-0.1,0.1-0.1c0.5,0,1,0,1.4,0.1c0.6,0.1,1,0.2,1.2,0.4C97.4,30.3,97.6,30.7,97.6,31.2z M96.5,31.3
			c0-0.2-0.1-0.4-0.2-0.5c-0.1-0.1-0.3-0.1-0.5-0.1l0,1.2C96.2,31.8,96.5,31.6,96.5,31.3z"/>
		<path class="st14" d="M100.6,33.5C100.6,33.6,100.6,33.6,100.6,33.5l-2.7,0.1c0,0-0.1,0-0.1-0.1v-3.8c0,0,0-0.1,0.1-0.1h2.7
			c0,0,0.1,0,0.1,0.1v0.8c0,0,0,0.1-0.1,0.1H99v0.6h1.2c0,0,0.1,0,0.1,0.1V32c0,0,0,0.1-0.1,0.1H99l0,0.6h1.6c0,0,0.1,0,0.1,0.1
			V33.5z"/>
		<path class="st14" d="M104,30.4C104,30.4,104,30.5,104,30.4l-0.7,0.8c0,0,0,0,0,0c0,0,0,0,0,0c-0.4-0.3-0.7-0.4-1-0.4
			c-0.2,0-0.3,0.1-0.3,0.2c0,0.1,0.2,0.2,0.5,0.3c0.5,0.2,0.8,0.3,1,0.4c0.3,0.2,0.5,0.5,0.5,0.9c0,0.8-0.6,1.2-1.7,1.2
			c-0.3,0-0.6-0.1-0.9-0.2c-0.3-0.1-0.5-0.3-0.7-0.5c0,0,0,0,0,0c0,0,0,0,0,0l0.7-0.7c0,0,0,0,0.1,0c0,0,0.1,0.1,0.4,0.2
			c0.3,0.1,0.5,0.2,0.7,0.2c0.2,0,0.3-0.1,0.3-0.2c0-0.1-0.2-0.2-0.5-0.3c-0.5-0.1-0.8-0.3-1-0.4c-0.3-0.2-0.5-0.6-0.5-0.9
			c0-0.4,0.2-0.6,0.6-0.9c0.3-0.2,0.7-0.3,1.1-0.3c0.3,0,0.6,0.1,0.9,0.2C103.6,30,103.8,30.2,104,30.4C104,30.4,104,30.4,104,30.4z
			"/>
		<path class="st14" d="M107.1,33.5C107.1,33.6,107.1,33.6,107.1,33.5l-2.7,0.1c0,0-0.1,0-0.1-0.1v-3.8c0,0,0-0.1,0.1-0.1h2.7
			c0,0,0.1,0,0.1,0.1v0.8c0,0,0,0.1-0.1,0.1h-1.6v0.6h1.2c0,0,0.1,0,0.1,0.1V32c0,0,0,0.1-0.1,0.1h-1.2l0,0.6h1.6c0,0,0.1,0,0.1,0.1
			V33.5z"/>
		<path class="st14" d="M110.7,33.7C110.7,33.7,110.6,33.8,110.7,33.7l-1.2,0.1c0,0,0,0-0.1,0l-0.8-1.1l0,0.9c0,0,0,0.1-0.1,0.1
			l-1.1,0.1c0,0-0.1,0-0.1-0.1l0-3.9c0,0,0-0.1,0.1-0.1c0.1,0,0.4-0.1,0.9-0.1c0.8,0,1.4,0.2,1.7,0.6c0.2,0.3,0.4,0.6,0.4,1
			c0,0.3-0.1,0.5-0.2,0.7c-0.1,0.2-0.3,0.4-0.5,0.6L110.7,33.7C110.7,33.7,110.7,33.7,110.7,33.7z M109.3,31.4
			c0-0.2-0.1-0.3-0.2-0.4c-0.1-0.1-0.3-0.1-0.4-0.1l0,1.1C109,31.9,109.3,31.7,109.3,31.4z"/>
		<path class="st14" d="M113.6,30.8C113.6,30.8,113.6,30.9,113.6,30.8l-0.9,0.1l0,2.9c0,0,0,0.1-0.1,0.1l-1.1,0c0,0-0.1,0-0.1-0.1
			v-2.9h-0.9c0,0-0.1,0-0.1-0.1V30c0,0,0-0.1,0.1-0.1h2.9c0,0,0.1,0,0.1,0.1V30.8z"/>
		<path class="st14" d="M116.7,33.8C116.7,33.8,116.7,33.8,116.7,33.8l-1.2,0.1c0,0-0.1,0-0.1-0.1l-0.1-0.7h-0.9l-0.1,0.7
			c0,0,0,0.1-0.1,0.1h-1.1c0,0-0.1,0-0.1-0.1v0l0.9-3.8c0,0,0-0.1,0.1-0.1h1.7c0,0,0.1,0,0.1,0.1L116.7,33.8z M115.2,32.1l-0.2-1.4
			l-0.3,1.4H115.2z"/>
		<path class="st14" d="M122.1,31.8c0,0.8-0.4,1.4-1.1,1.7c-0.5,0.3-1.2,0.4-2.1,0.4c0,0-0.1,0-0.1-0.1v-4.2c0,0,0-0.1,0.1-0.1
			c0.9,0,1.6,0.1,2.1,0.4C121.8,30.4,122.1,31,122.1,31.8z M120.9,31.8c0-0.2-0.1-0.4-0.2-0.6c-0.1-0.2-0.3-0.3-0.6-0.3v1.9
			c0.2,0,0.4-0.1,0.6-0.3C120.8,32.2,120.9,32,120.9,31.8z"/>
		<path class="st14" d="M123.6,29.8l-0.1,3.8c0,0,0,0.1-0.1,0.1l-1,0c0,0,0,0,0,0c0,0,0,0,0,0l0.1-3.8c0,0,0-0.1,0.1-0.1L123.6,29.8
			C123.6,29.8,123.6,29.8,123.6,29.8z"/>
		<path class="st14" d="M127.1,31.8c0,0.8-0.4,1.4-1.1,1.7c-0.5,0.3-1.2,0.4-2.1,0.4c0,0-0.1,0-0.1-0.1v-4.2c0,0,0-0.1,0.1-0.1
			c0.9,0,1.6,0.1,2.1,0.4C126.7,30.4,127.1,31,127.1,31.8z M125.9,31.8c0-0.2-0.1-0.4-0.2-0.6c-0.1-0.2-0.3-0.3-0.6-0.3v1.9
			c0.2,0,0.4-0.1,0.6-0.3C125.8,32.2,125.9,32,125.9,31.8z"/>
		<path class="st14" d="M128.6,29.8l-0.1,3.8c0,0,0,0.1-0.1,0.1l-1,0c0,0,0,0,0,0c0,0,0,0,0,0l0.1-3.8c0,0,0-0.1,0.1-0.1L128.6,29.8
			C128.5,29.8,128.6,29.8,128.6,29.8z"/>
		<path class="st14" d="M132.4,30C132.4,30,132.3,30,132.4,30l-1.1,1.7c0.7,1.2,1,1.9,1,1.9c0,0,0,0.1-0.1,0.1l-1.2,0.1
			c0,0-0.1,0-0.1,0l-0.7-1.5l-0.1,0l0,1.2c0,0,0,0.1-0.1,0.1l-1.1,0.1c0,0-0.1,0-0.1-0.1l0-3.7c0,0,0-0.1,0.1-0.1l1.2,0c0,0,0,0,0,0
			c0,0,0,0,0,0l0,1.5l0.9-1.5c0,0,0,0,0.1,0L132.4,30C132.3,29.9,132.4,29.9,132.4,30z"/>
		<path class="st14" d="M137.7,32.6c0,0.5-0.3,0.9-0.9,1.1c-0.4,0.1-1,0.2-1.7,0.2c-0.1,0-0.2,0-0.3,0c-0.1,0-0.2,0-0.2,0
			c0,0-0.1,0-0.1-0.1v-4.2c0,0,0-0.1,0.1-0.1c0,0,0.1,0,0.2,0c0.1,0,0.2,0,0.3,0c0.7,0,1.3,0.1,1.7,0.2c0.6,0.2,0.9,0.6,0.9,1.1
			c0,0.4-0.2,0.6-0.6,0.9C137.6,32,137.7,32.3,137.7,32.6z M136.6,31c0-0.3-0.3-0.5-0.8-0.5v0.9C136.3,31.4,136.6,31.2,136.6,31z
			 M136.6,32.6c0-0.3-0.3-0.4-0.8-0.4v0.9c0.2,0,0.4,0,0.5-0.1C136.5,32.9,136.6,32.7,136.6,32.6z"/>
		<path class="st14" d="M141.4,33.8C141.4,33.8,141.4,33.8,141.4,33.8l-1.2,0.1c0,0-0.1,0-0.1-0.1l-0.1-0.7h-0.9l-0.1,0.7
			c0,0,0,0.1-0.1,0.1h-1.1c0,0-0.1,0-0.1-0.1v0l0.9-3.8c0,0,0-0.1,0.1-0.1h1.7c0,0,0.1,0,0.1,0.1L141.4,33.8z M139.9,32.1l-0.2-1.4
			l-0.3,1.4H139.9z"/>
		<path class="st14" d="M144.9,33.7C144.9,33.7,144.8,33.8,144.9,33.7l-1.2,0.1c0,0,0,0-0.1,0l-0.8-1.1l0,0.9c0,0,0,0.1-0.1,0.1
			l-1.1,0.1c0,0-0.1,0-0.1-0.1l0-3.9c0,0,0-0.1,0.1-0.1c0.1,0,0.4-0.1,0.9-0.1c0.8,0,1.4,0.2,1.7,0.6c0.2,0.3,0.4,0.6,0.4,1
			c0,0.3-0.1,0.5-0.2,0.7c-0.1,0.2-0.3,0.4-0.5,0.6L144.9,33.7C144.9,33.7,144.9,33.7,144.9,33.7z M143.5,31.4
			c0-0.2-0.1-0.3-0.2-0.4c-0.1-0.1-0.3-0.1-0.4-0.1l0,1.1C143.2,31.9,143.5,31.7,143.5,31.4z"/>
		<path class="st14" d="M148.2,30.1l0,2.2c0,1.1-0.6,1.7-1.7,1.7c-1.1,0-1.6-0.5-1.6-1.6c0,0,0-0.8,0-2.2c0,0,0-0.1,0.1-0.1l1.1,0.1
			c0,0,0.1,0,0.1,0.1l-0.1,2.1c0,0.4,0.1,0.6,0.4,0.6c0.2,0,0.3-0.1,0.4-0.3c0-0.1,0.1-0.3,0.1-0.5l0-2c0,0,0-0.1,0.1-0.1
			L148.2,30.1C148.2,30,148.2,30,148.2,30.1C148.2,30,148.2,30,148.2,30.1z"/>
	</g>
</g>
</svg>
