<?xml version="1.0" encoding="UTF-8"?>
<svg width="1365px" height="407px" viewBox="0 0 1365 407" version="1.1" xmlns="http://www.w3.org/2000/svg" xmlns:xlink="http://www.w3.org/1999/xlink">
    <title>35A22763-FCED-4E36-AB7A-7BFB7FF8EA8B</title>
    <g id="Pages" stroke="none" stroke-width="1" fill="none" fill-rule="evenodd">
        <g id="Landing-Page" transform="translate(-1.000000, -169.000000)">
            <g id="BG" transform="translate(4.000000, 169.000000)">
                <g id="Group" opacity="0.131766183" transform="translate(136.781250, 212.000000)" fill="#1B8BC8">
                    <g id="Group-79">
                        <path d="M4.77419355,2.39344262 C4.77419355,3.71545617 3.7056052,4.78688525 2.3860683,4.78688525 C1.06858834,4.78688525 0,3.71545617 0,2.39344262 C0,1.07142908 1.06858834,0 2.3860683,0 C3.7056052,0 4.77419355,1.07142908 4.77419355,2.39344262" id="Fill-1"></path>
                        <path d="M19.0967742,2.39344262 C19.0967742,3.71545617 18.0281858,4.78688525 16.7091632,4.78688525 C15.391169,4.78688525 14.3225806,3.71545617 14.3225806,2.39344262 C14.3225806,1.07142908 15.391169,0 16.7091632,0 C18.0281858,0 19.0967742,1.07142908 19.0967742,2.39344262" id="Fill-3"></path>
                        <path d="M32.2258065,2.39344262 C32.2258065,3.71545617 31.1569879,4.78688525 29.8387097,4.78688525 C28.5199171,4.78688525 27.4516129,3.71545617 27.4516129,2.39344262 C27.4516129,1.07142908 28.5199171,0 29.8387097,0 C31.1569879,0 32.2258065,1.07142908 32.2258065,2.39344262" id="Fill-5"></path>
                        <path d="M46.5483871,2.39344262 C46.5483871,3.71545617 45.4795685,4.78688525 44.1602616,4.78688525 C42.8419834,4.78688525 41.7741935,3.71545617 41.7741935,2.39344262 C41.7741935,1.07142908 42.8419834,0 44.1602616,0 C45.4795685,0 46.5483871,1.07142908 46.5483871,2.39344262" id="Fill-7"></path>
                        <path d="M59.6774194,2.39344262 C59.6774194,3.71545617 58.6093452,4.78688525 57.2898083,4.78688525 C55.9718142,4.78688525 54.9032258,3.71545617 54.9032258,2.39344262 C54.9032258,1.07142908 55.9718142,0 57.2898083,0 C58.6093452,0 59.6774194,1.07142908 59.6774194,2.39344262" id="Fill-9"></path>
                        <path d="M4.77419355,15.557377 C4.77419355,16.8793906 3.7056052,17.9508197 2.3860683,17.9508197 C1.06858834,17.9508197 0,16.8793906 0,15.557377 C0,14.2358791 1.06858834,13.1639344 2.3860683,13.1639344 C3.7056052,13.1639344 4.77419355,14.2358791 4.77419355,15.557377" id="Fill-14"></path>
                        <path d="M19.0967742,15.557377 C19.0967742,16.8793906 18.0281858,17.9508197 16.7091632,17.9508197 C15.391169,17.9508197 14.3225806,16.8793906 14.3225806,15.557377 C14.3225806,14.2358791 15.391169,13.1639344 16.7091632,13.1639344 C18.0281858,13.1639344 19.0967742,14.2358791 19.0967742,15.557377" id="Fill-16"></path>
                        <path d="M32.2258065,15.557377 C32.2258065,16.8793906 31.1569879,17.9508197 29.8387097,17.9508197 C28.5199171,17.9508197 27.4516129,16.8793906 27.4516129,15.557377 C27.4516129,14.2358791 28.5199171,13.1639344 29.8387097,13.1639344 C31.1569879,13.1639344 32.2258065,14.2358791 32.2258065,15.557377" id="Fill-18"></path>
                        <path d="M46.5483871,15.557377 C46.5483871,16.8793906 45.4795685,17.9508197 44.1602616,17.9508197 C42.8419834,17.9508197 41.7741935,16.8793906 41.7741935,15.557377 C41.7741935,14.2358791 42.8419834,13.1639344 44.1602616,13.1639344 C45.4795685,13.1639344 46.5483871,14.2358791 46.5483871,15.557377" id="Fill-20"></path>
                        <path d="M59.6774194,15.557377 C59.6774194,16.8793906 58.6093452,17.9508197 57.2898083,17.9508197 C55.9718142,17.9508197 54.9032258,16.8793906 54.9032258,15.557377 C54.9032258,14.2358791 55.9718142,13.1639344 57.2898083,13.1639344 C58.6093452,13.1639344 59.6774194,14.2358791 59.6774194,15.557377" id="Fill-22"></path>
                        <path d="M4.77419355,30.5167157 C4.77419355,32.1684102 3.7056052,33.5081967 2.3860683,33.5081967 C1.06858834,33.5081967 0,32.1684102 0,30.5167157 C0,28.8643767 1.06858834,27.5245902 2.3860683,27.5245902 C3.7056052,27.5245902 4.77419355,28.8643767 4.77419355,30.5167157" id="Fill-27"></path>
                        <path d="M19.0967742,30.5167157 C19.0967742,32.1684102 18.0281858,33.5081967 16.7091632,33.5081967 C15.391169,33.5081967 14.3225806,32.1684102 14.3225806,30.5167157 C14.3225806,28.8643767 15.391169,27.5245902 16.7091632,27.5245902 C18.0281858,27.5245902 19.0967742,28.8643767 19.0967742,30.5167157" id="Fill-29"></path>
                        <path d="M32.2258065,30.5167157 C32.2258065,32.1684102 31.1569879,33.5081967 29.8387097,33.5081967 C28.5199171,33.5081967 27.4516129,32.1684102 27.4516129,30.5167157 C27.4516129,28.8643767 28.5199171,27.5245902 29.8387097,27.5245902 C31.1569879,27.5245902 32.2258065,28.8643767 32.2258065,30.5167157" id="Fill-31"></path>
                        <path d="M46.5483871,30.5167157 C46.5483871,32.1684102 45.4795685,33.5081967 44.1602616,33.5081967 C42.8419834,33.5081967 41.7741935,32.1684102 41.7741935,30.5167157 C41.7741935,28.8643767 42.8419834,27.5245902 44.1602616,27.5245902 C45.4795685,27.5245902 46.5483871,28.8643767 46.5483871,30.5167157" id="Fill-33"></path>
                        <path d="M59.6774194,30.5167157 C59.6774194,32.1684102 58.6093452,33.5081967 57.2898083,33.5081967 C55.9718142,33.5081967 54.9032258,32.1684102 54.9032258,30.5167157 C54.9032258,28.8643767 55.9718142,27.5245902 57.2898083,27.5245902 C58.6093452,27.5245902 59.6774194,28.8643767 59.6774194,30.5167157" id="Fill-35"></path>
                        <path d="M4.77419355,43.6800056 C4.77419355,45.3323446 3.7056052,46.6721311 2.3860683,46.6721311 C1.06858834,46.6721311 0,45.3323446 0,43.6800056 C0,42.0283111 1.06858834,40.6885246 2.3860683,40.6885246 C3.7056052,40.6885246 4.77419355,42.0283111 4.77419355,43.6800056" id="Fill-40"></path>
                        <path d="M19.0967742,43.6800056 C19.0967742,45.3323446 18.0281858,46.6721311 16.7091632,46.6721311 C15.391169,46.6721311 14.3225806,45.3323446 14.3225806,43.6800056 C14.3225806,42.0283111 15.391169,40.6885246 16.7091632,40.6885246 C18.0281858,40.6885246 19.0967742,42.0283111 19.0967742,43.6800056" id="Fill-42"></path>
                        <path d="M32.2258065,43.6800056 C32.2258065,45.3323446 31.1569879,46.6721311 29.8387097,46.6721311 C28.5199171,46.6721311 27.4516129,45.3323446 27.4516129,43.6800056 C27.4516129,42.0283111 28.5199171,40.6885246 29.8387097,40.6885246 C31.1569879,40.6885246 32.2258065,42.0283111 32.2258065,43.6800056" id="Fill-44"></path>
                        <path d="M46.5483871,43.6800056 C46.5483871,45.3323446 45.4795685,46.6721311 44.1602616,46.6721311 C42.8419834,46.6721311 41.7741935,45.3323446 41.7741935,43.6800056 C41.7741935,42.0283111 42.8419834,40.6885246 44.1602616,40.6885246 C45.4795685,40.6885246 46.5483871,42.0283111 46.5483871,43.6800056" id="Fill-46"></path>
                        <path d="M59.6774194,43.6800056 C59.6774194,45.3323446 58.6093452,46.6721311 57.2898083,46.6721311 C55.9718142,46.6721311 54.9032258,45.3323446 54.9032258,43.6800056 C54.9032258,42.0283111 55.9718142,40.6885246 57.2898083,40.6885246 C58.6093452,40.6885246 59.6774194,42.0283111 59.6774194,43.6800056" id="Fill-48"></path>
                        <path d="M4.77419355,57.442623 C4.77419355,58.7641209 3.7056052,59.8360656 2.3860683,59.8360656 C1.06858834,59.8360656 0,58.7641209 0,57.442623 C0,56.1206094 1.06858834,55.0491803 2.3860683,55.0491803 C3.7056052,55.0491803 4.77419355,56.1206094 4.77419355,57.442623" id="Fill-53"></path>
                        <path d="M19.0967742,57.442623 C19.0967742,58.7641209 18.0281858,59.8360656 16.7091632,59.8360656 C15.391169,59.8360656 14.3225806,58.7641209 14.3225806,57.442623 C14.3225806,56.1206094 15.391169,55.0491803 16.7091632,55.0491803 C18.0281858,55.0491803 19.0967742,56.1206094 19.0967742,57.442623" id="Fill-55"></path>
                        <path d="M32.2258065,57.442623 C32.2258065,58.7641209 31.1569879,59.8360656 29.8387097,59.8360656 C28.5199171,59.8360656 27.4516129,58.7641209 27.4516129,57.442623 C27.4516129,56.1206094 28.5199171,55.0491803 29.8387097,55.0491803 C31.1569879,55.0491803 32.2258065,56.1206094 32.2258065,57.442623" id="Fill-57"></path>
                        <path d="M46.5483871,57.442623 C46.5483871,58.7641209 45.4795685,59.8360656 44.1602616,59.8360656 C42.8419834,59.8360656 41.7741935,58.7641209 41.7741935,57.442623 C41.7741935,56.1206094 42.8419834,55.0491803 44.1602616,55.0491803 C45.4795685,55.0491803 46.5483871,56.1206094 46.5483871,57.442623" id="Fill-59"></path>
                        <path d="M59.6774194,57.442623 C59.6774194,58.7641209 58.6093452,59.8360656 57.2898083,59.8360656 C55.9718142,59.8360656 54.9032258,58.7641209 54.9032258,57.442623 C54.9032258,56.1206094 55.9718142,55.0491803 57.2898083,55.0491803 C58.6093452,55.0491803 59.6774194,56.1206094 59.6774194,57.442623" id="Fill-61"></path>
                        <path d="M4.77419355,70.6065574 C4.77419355,71.9285709 3.7056052,73 2.3860683,73 C1.06858834,73 0,71.9285709 0,70.6065574 C0,69.2845438 1.06858834,68.2131148 2.3860683,68.2131148 C3.7056052,68.2131148 4.77419355,69.2845438 4.77419355,70.6065574" id="Fill-66"></path>
                        <path d="M19.0967742,70.6065574 C19.0967742,71.9285709 18.0281858,73 16.7091632,73 C15.391169,73 14.3225806,71.9285709 14.3225806,70.6065574 C14.3225806,69.2845438 15.391169,68.2131148 16.7091632,68.2131148 C18.0281858,68.2131148 19.0967742,69.2845438 19.0967742,70.6065574" id="Fill-68"></path>
                        <path d="M32.2258065,70.6065574 C32.2258065,71.9285709 31.1569879,73 29.8387097,73 C28.5199171,73 27.4516129,71.9285709 27.4516129,70.6065574 C27.4516129,69.2845438 28.5199171,68.2131148 29.8387097,68.2131148 C31.1569879,68.2131148 32.2258065,69.2845438 32.2258065,70.6065574" id="Fill-70"></path>
                        <path d="M46.5483871,70.6065574 C46.5483871,71.9285709 45.4795685,73 44.1602616,73 C42.8419834,73 41.7741935,71.9285709 41.7741935,70.6065574 C41.7741935,69.2845438 42.8419834,68.2131148 44.1602616,68.2131148 C45.4795685,68.2131148 46.5483871,69.2845438 46.5483871,70.6065574" id="Fill-72"></path>
                        <path d="M59.6774194,70.6065574 C59.6774194,71.9285709 58.6093452,73 57.2898083,73 C55.9718142,73 54.9032258,71.9285709 54.9032258,70.6065574 C54.9032258,69.2845438 55.9718142,68.2131148 57.2898083,68.2131148 C58.6093452,68.2131148 59.6774194,69.2845438 59.6774194,70.6065574" id="Fill-74"></path>
                        <path d="M74,2.39344262 C74,3.71545617 72.9319259,4.78688525 71.612389,4.78688525 C70.2943948,4.78688525 69.2258065,3.71545617 69.2258065,2.39344262 C69.2258065,1.07142908 70.2943948,0 71.612389,0 C72.9319259,0 74,1.07142908 74,2.39344262" id="Fill-9-Copy"></path>
                        <path d="M74,15.557377 C74,16.8793906 72.9319259,17.9508197 71.612389,17.9508197 C70.2943948,17.9508197 69.2258065,16.8793906 69.2258065,15.557377 C69.2258065,14.2358791 70.2943948,13.1639344 71.612389,13.1639344 C72.9319259,13.1639344 74,14.2358791 74,15.557377" id="Fill-22-Copy"></path>
                        <path d="M74,30.5167157 C74,32.1684102 72.9319259,33.5081967 71.612389,33.5081967 C70.2943948,33.5081967 69.2258065,32.1684102 69.2258065,30.5167157 C69.2258065,28.8643767 70.2943948,27.5245902 71.612389,27.5245902 C72.9319259,27.5245902 74,28.8643767 74,30.5167157" id="Fill-35-Copy"></path>
                        <path d="M74,43.6800056 C74,45.3323446 72.9319259,46.6721311 71.612389,46.6721311 C70.2943948,46.6721311 69.2258065,45.3323446 69.2258065,43.6800056 C69.2258065,42.0283111 70.2943948,40.6885246 71.612389,40.6885246 C72.9319259,40.6885246 74,42.0283111 74,43.6800056" id="Fill-48-Copy"></path>
                        <path d="M74,57.442623 C74,58.7641209 72.9319259,59.8360656 71.612389,59.8360656 C70.2943948,59.8360656 69.2258065,58.7641209 69.2258065,57.442623 C69.2258065,56.1206094 70.2943948,55.0491803 71.612389,55.0491803 C72.9319259,55.0491803 74,56.1206094 74,57.442623" id="Fill-61-Copy"></path>
                        <path d="M74,70.6065574 C74,71.9285709 72.9319259,73 71.612389,73 C70.2943948,73 69.2258065,71.9285709 69.2258065,70.6065574 C69.2258065,69.2845438 70.2943948,68.2131148 71.612389,68.2131148 C72.9319259,68.2131148 74,69.2845438 74,70.6065574" id="Fill-74-Copy"></path>
                    </g>
                    <g id="Group-79-Copy" transform="translate(0.000000, 80.000000)">
                        <path d="M4.77419355,2.39344262 C4.77419355,3.71545617 3.7056052,4.78688525 2.3860683,4.78688525 C1.06858834,4.78688525 0,3.71545617 0,2.39344262 C0,1.07142908 1.06858834,0 2.3860683,0 C3.7056052,0 4.77419355,1.07142908 4.77419355,2.39344262" id="Fill-1"></path>
                        <path d="M19.0967742,2.39344262 C19.0967742,3.71545617 18.0281858,4.78688525 16.7091632,4.78688525 C15.391169,4.78688525 14.3225806,3.71545617 14.3225806,2.39344262 C14.3225806,1.07142908 15.391169,0 16.7091632,0 C18.0281858,0 19.0967742,1.07142908 19.0967742,2.39344262" id="Fill-3"></path>
                        <path d="M32.2258065,2.39344262 C32.2258065,3.71545617 31.1569879,4.78688525 29.8387097,4.78688525 C28.5199171,4.78688525 27.4516129,3.71545617 27.4516129,2.39344262 C27.4516129,1.07142908 28.5199171,0 29.8387097,0 C31.1569879,0 32.2258065,1.07142908 32.2258065,2.39344262" id="Fill-5"></path>
                        <path d="M46.5483871,2.39344262 C46.5483871,3.71545617 45.4795685,4.78688525 44.1602616,4.78688525 C42.8419834,4.78688525 41.7741935,3.71545617 41.7741935,2.39344262 C41.7741935,1.07142908 42.8419834,0 44.1602616,0 C45.4795685,0 46.5483871,1.07142908 46.5483871,2.39344262" id="Fill-7"></path>
                        <path d="M59.6774194,2.39344262 C59.6774194,3.71545617 58.6093452,4.78688525 57.2898083,4.78688525 C55.9718142,4.78688525 54.9032258,3.71545617 54.9032258,2.39344262 C54.9032258,1.07142908 55.9718142,0 57.2898083,0 C58.6093452,0 59.6774194,1.07142908 59.6774194,2.39344262" id="Fill-9"></path>
                        <path d="M4.77419355,15.557377 C4.77419355,16.8793906 3.7056052,17.9508197 2.3860683,17.9508197 C1.06858834,17.9508197 0,16.8793906 0,15.557377 C0,14.2358791 1.06858834,13.1639344 2.3860683,13.1639344 C3.7056052,13.1639344 4.77419355,14.2358791 4.77419355,15.557377" id="Fill-14"></path>
                        <path d="M19.0967742,15.557377 C19.0967742,16.8793906 18.0281858,17.9508197 16.7091632,17.9508197 C15.391169,17.9508197 14.3225806,16.8793906 14.3225806,15.557377 C14.3225806,14.2358791 15.391169,13.1639344 16.7091632,13.1639344 C18.0281858,13.1639344 19.0967742,14.2358791 19.0967742,15.557377" id="Fill-16"></path>
                        <path d="M32.2258065,15.557377 C32.2258065,16.8793906 31.1569879,17.9508197 29.8387097,17.9508197 C28.5199171,17.9508197 27.4516129,16.8793906 27.4516129,15.557377 C27.4516129,14.2358791 28.5199171,13.1639344 29.8387097,13.1639344 C31.1569879,13.1639344 32.2258065,14.2358791 32.2258065,15.557377" id="Fill-18"></path>
                        <path d="M46.5483871,15.557377 C46.5483871,16.8793906 45.4795685,17.9508197 44.1602616,17.9508197 C42.8419834,17.9508197 41.7741935,16.8793906 41.7741935,15.557377 C41.7741935,14.2358791 42.8419834,13.1639344 44.1602616,13.1639344 C45.4795685,13.1639344 46.5483871,14.2358791 46.5483871,15.557377" id="Fill-20"></path>
                        <path d="M59.6774194,15.557377 C59.6774194,16.8793906 58.6093452,17.9508197 57.2898083,17.9508197 C55.9718142,17.9508197 54.9032258,16.8793906 54.9032258,15.557377 C54.9032258,14.2358791 55.9718142,13.1639344 57.2898083,13.1639344 C58.6093452,13.1639344 59.6774194,14.2358791 59.6774194,15.557377" id="Fill-22"></path>
                        <path d="M4.77419355,30.5167157 C4.77419355,32.1684102 3.7056052,33.5081967 2.3860683,33.5081967 C1.06858834,33.5081967 0,32.1684102 0,30.5167157 C0,28.8643767 1.06858834,27.5245902 2.3860683,27.5245902 C3.7056052,27.5245902 4.77419355,28.8643767 4.77419355,30.5167157" id="Fill-27"></path>
                        <path d="M19.0967742,30.5167157 C19.0967742,32.1684102 18.0281858,33.5081967 16.7091632,33.5081967 C15.391169,33.5081967 14.3225806,32.1684102 14.3225806,30.5167157 C14.3225806,28.8643767 15.391169,27.5245902 16.7091632,27.5245902 C18.0281858,27.5245902 19.0967742,28.8643767 19.0967742,30.5167157" id="Fill-29"></path>
                        <path d="M32.2258065,30.5167157 C32.2258065,32.1684102 31.1569879,33.5081967 29.8387097,33.5081967 C28.5199171,33.5081967 27.4516129,32.1684102 27.4516129,30.5167157 C27.4516129,28.8643767 28.5199171,27.5245902 29.8387097,27.5245902 C31.1569879,27.5245902 32.2258065,28.8643767 32.2258065,30.5167157" id="Fill-31"></path>
                        <path d="M46.5483871,30.5167157 C46.5483871,32.1684102 45.4795685,33.5081967 44.1602616,33.5081967 C42.8419834,33.5081967 41.7741935,32.1684102 41.7741935,30.5167157 C41.7741935,28.8643767 42.8419834,27.5245902 44.1602616,27.5245902 C45.4795685,27.5245902 46.5483871,28.8643767 46.5483871,30.5167157" id="Fill-33"></path>
                        <path d="M59.6774194,30.5167157 C59.6774194,32.1684102 58.6093452,33.5081967 57.2898083,33.5081967 C55.9718142,33.5081967 54.9032258,32.1684102 54.9032258,30.5167157 C54.9032258,28.8643767 55.9718142,27.5245902 57.2898083,27.5245902 C58.6093452,27.5245902 59.6774194,28.8643767 59.6774194,30.5167157" id="Fill-35"></path>
                        <path d="M4.77419355,43.6800056 C4.77419355,45.3323446 3.7056052,46.6721311 2.3860683,46.6721311 C1.06858834,46.6721311 0,45.3323446 0,43.6800056 C0,42.0283111 1.06858834,40.6885246 2.3860683,40.6885246 C3.7056052,40.6885246 4.77419355,42.0283111 4.77419355,43.6800056" id="Fill-40"></path>
                        <path d="M19.0967742,43.6800056 C19.0967742,45.3323446 18.0281858,46.6721311 16.7091632,46.6721311 C15.391169,46.6721311 14.3225806,45.3323446 14.3225806,43.6800056 C14.3225806,42.0283111 15.391169,40.6885246 16.7091632,40.6885246 C18.0281858,40.6885246 19.0967742,42.0283111 19.0967742,43.6800056" id="Fill-42"></path>
                        <path d="M32.2258065,43.6800056 C32.2258065,45.3323446 31.1569879,46.6721311 29.8387097,46.6721311 C28.5199171,46.6721311 27.4516129,45.3323446 27.4516129,43.6800056 C27.4516129,42.0283111 28.5199171,40.6885246 29.8387097,40.6885246 C31.1569879,40.6885246 32.2258065,42.0283111 32.2258065,43.6800056" id="Fill-44"></path>
                        <path d="M46.5483871,43.6800056 C46.5483871,45.3323446 45.4795685,46.6721311 44.1602616,46.6721311 C42.8419834,46.6721311 41.7741935,45.3323446 41.7741935,43.6800056 C41.7741935,42.0283111 42.8419834,40.6885246 44.1602616,40.6885246 C45.4795685,40.6885246 46.5483871,42.0283111 46.5483871,43.6800056" id="Fill-46"></path>
                        <path d="M59.6774194,43.6800056 C59.6774194,45.3323446 58.6093452,46.6721311 57.2898083,46.6721311 C55.9718142,46.6721311 54.9032258,45.3323446 54.9032258,43.6800056 C54.9032258,42.0283111 55.9718142,40.6885246 57.2898083,40.6885246 C58.6093452,40.6885246 59.6774194,42.0283111 59.6774194,43.6800056" id="Fill-48"></path>
                        <path d="M4.77419355,57.442623 C4.77419355,58.7641209 3.7056052,59.8360656 2.3860683,59.8360656 C1.06858834,59.8360656 0,58.7641209 0,57.442623 C0,56.1206094 1.06858834,55.0491803 2.3860683,55.0491803 C3.7056052,55.0491803 4.77419355,56.1206094 4.77419355,57.442623" id="Fill-53"></path>
                        <path d="M19.0967742,57.442623 C19.0967742,58.7641209 18.0281858,59.8360656 16.7091632,59.8360656 C15.391169,59.8360656 14.3225806,58.7641209 14.3225806,57.442623 C14.3225806,56.1206094 15.391169,55.0491803 16.7091632,55.0491803 C18.0281858,55.0491803 19.0967742,56.1206094 19.0967742,57.442623" id="Fill-55"></path>
                        <path d="M32.2258065,57.442623 C32.2258065,58.7641209 31.1569879,59.8360656 29.8387097,59.8360656 C28.5199171,59.8360656 27.4516129,58.7641209 27.4516129,57.442623 C27.4516129,56.1206094 28.5199171,55.0491803 29.8387097,55.0491803 C31.1569879,55.0491803 32.2258065,56.1206094 32.2258065,57.442623" id="Fill-57"></path>
                        <path d="M46.5483871,57.442623 C46.5483871,58.7641209 45.4795685,59.8360656 44.1602616,59.8360656 C42.8419834,59.8360656 41.7741935,58.7641209 41.7741935,57.442623 C41.7741935,56.1206094 42.8419834,55.0491803 44.1602616,55.0491803 C45.4795685,55.0491803 46.5483871,56.1206094 46.5483871,57.442623" id="Fill-59"></path>
                        <path d="M59.6774194,57.442623 C59.6774194,58.7641209 58.6093452,59.8360656 57.2898083,59.8360656 C55.9718142,59.8360656 54.9032258,58.7641209 54.9032258,57.442623 C54.9032258,56.1206094 55.9718142,55.0491803 57.2898083,55.0491803 C58.6093452,55.0491803 59.6774194,56.1206094 59.6774194,57.442623" id="Fill-61"></path>
                        <path d="M4.77419355,70.6065574 C4.77419355,71.9285709 3.7056052,73 2.3860683,73 C1.06858834,73 0,71.9285709 0,70.6065574 C0,69.2845438 1.06858834,68.2131148 2.3860683,68.2131148 C3.7056052,68.2131148 4.77419355,69.2845438 4.77419355,70.6065574" id="Fill-66"></path>
                        <path d="M19.0967742,70.6065574 C19.0967742,71.9285709 18.0281858,73 16.7091632,73 C15.391169,73 14.3225806,71.9285709 14.3225806,70.6065574 C14.3225806,69.2845438 15.391169,68.2131148 16.7091632,68.2131148 C18.0281858,68.2131148 19.0967742,69.2845438 19.0967742,70.6065574" id="Fill-68"></path>
                        <path d="M32.2258065,70.6065574 C32.2258065,71.9285709 31.1569879,73 29.8387097,73 C28.5199171,73 27.4516129,71.9285709 27.4516129,70.6065574 C27.4516129,69.2845438 28.5199171,68.2131148 29.8387097,68.2131148 C31.1569879,68.2131148 32.2258065,69.2845438 32.2258065,70.6065574" id="Fill-70"></path>
                        <path d="M46.5483871,70.6065574 C46.5483871,71.9285709 45.4795685,73 44.1602616,73 C42.8419834,73 41.7741935,71.9285709 41.7741935,70.6065574 C41.7741935,69.2845438 42.8419834,68.2131148 44.1602616,68.2131148 C45.4795685,68.2131148 46.5483871,69.2845438 46.5483871,70.6065574" id="Fill-72"></path>
                        <path d="M59.6774194,70.6065574 C59.6774194,71.9285709 58.6093452,73 57.2898083,73 C55.9718142,73 54.9032258,71.9285709 54.9032258,70.6065574 C54.9032258,69.2845438 55.9718142,68.2131148 57.2898083,68.2131148 C58.6093452,68.2131148 59.6774194,69.2845438 59.6774194,70.6065574" id="Fill-74"></path>
                        <path d="M74,2.39344262 C74,3.71545617 72.9319259,4.78688525 71.612389,4.78688525 C70.2943948,4.78688525 69.2258065,3.71545617 69.2258065,2.39344262 C69.2258065,1.07142908 70.2943948,0 71.612389,0 C72.9319259,0 74,1.07142908 74,2.39344262" id="Fill-9-Copy"></path>
                        <path d="M74,15.557377 C74,16.8793906 72.9319259,17.9508197 71.612389,17.9508197 C70.2943948,17.9508197 69.2258065,16.8793906 69.2258065,15.557377 C69.2258065,14.2358791 70.2943948,13.1639344 71.612389,13.1639344 C72.9319259,13.1639344 74,14.2358791 74,15.557377" id="Fill-22-Copy"></path>
                        <path d="M74,30.5167157 C74,32.1684102 72.9319259,33.5081967 71.612389,33.5081967 C70.2943948,33.5081967 69.2258065,32.1684102 69.2258065,30.5167157 C69.2258065,28.8643767 70.2943948,27.5245902 71.612389,27.5245902 C72.9319259,27.5245902 74,28.8643767 74,30.5167157" id="Fill-35-Copy"></path>
                        <path d="M74,43.6800056 C74,45.3323446 72.9319259,46.6721311 71.612389,46.6721311 C70.2943948,46.6721311 69.2258065,45.3323446 69.2258065,43.6800056 C69.2258065,42.0283111 70.2943948,40.6885246 71.612389,40.6885246 C72.9319259,40.6885246 74,42.0283111 74,43.6800056" id="Fill-48-Copy"></path>
                        <path d="M74,57.442623 C74,58.7641209 72.9319259,59.8360656 71.612389,59.8360656 C70.2943948,59.8360656 69.2258065,58.7641209 69.2258065,57.442623 C69.2258065,56.1206094 70.2943948,55.0491803 71.612389,55.0491803 C72.9319259,55.0491803 74,56.1206094 74,57.442623" id="Fill-61-Copy"></path>
                        <path d="M74,70.6065574 C74,71.9285709 72.9319259,73 71.612389,73 C70.2943948,73 69.2258065,71.9285709 69.2258065,70.6065574 C69.2258065,69.2845438 70.2943948,68.2131148 71.612389,68.2131148 C72.9319259,68.2131148 74,69.2845438 74,70.6065574" id="Fill-74-Copy"></path>
                    </g>
                    <g id="Group-79-Copy-3" transform="translate(84.000000, 0.000000)">
                        <path d="M4.77419355,2.39344262 C4.77419355,3.71545617 3.7056052,4.78688525 2.3860683,4.78688525 C1.06858834,4.78688525 0,3.71545617 0,2.39344262 C0,1.07142908 1.06858834,0 2.3860683,0 C3.7056052,0 4.77419355,1.07142908 4.77419355,2.39344262" id="Fill-1"></path>
                        <path d="M19.0967742,2.39344262 C19.0967742,3.71545617 18.0281858,4.78688525 16.7091632,4.78688525 C15.391169,4.78688525 14.3225806,3.71545617 14.3225806,2.39344262 C14.3225806,1.07142908 15.391169,0 16.7091632,0 C18.0281858,0 19.0967742,1.07142908 19.0967742,2.39344262" id="Fill-3"></path>
                        <path d="M32.2258065,2.39344262 C32.2258065,3.71545617 31.1569879,4.78688525 29.8387097,4.78688525 C28.5199171,4.78688525 27.4516129,3.71545617 27.4516129,2.39344262 C27.4516129,1.07142908 28.5199171,0 29.8387097,0 C31.1569879,0 32.2258065,1.07142908 32.2258065,2.39344262" id="Fill-5"></path>
                        <path d="M46.5483871,2.39344262 C46.5483871,3.71545617 45.4795685,4.78688525 44.1602616,4.78688525 C42.8419834,4.78688525 41.7741935,3.71545617 41.7741935,2.39344262 C41.7741935,1.07142908 42.8419834,0 44.1602616,0 C45.4795685,0 46.5483871,1.07142908 46.5483871,2.39344262" id="Fill-7"></path>
                        <path d="M59.6774194,2.39344262 C59.6774194,3.71545617 58.6093452,4.78688525 57.2898083,4.78688525 C55.9718142,4.78688525 54.9032258,3.71545617 54.9032258,2.39344262 C54.9032258,1.07142908 55.9718142,0 57.2898083,0 C58.6093452,0 59.6774194,1.07142908 59.6774194,2.39344262" id="Fill-9"></path>
                        <path d="M4.77419355,15.557377 C4.77419355,16.8793906 3.7056052,17.9508197 2.3860683,17.9508197 C1.06858834,17.9508197 0,16.8793906 0,15.557377 C0,14.2358791 1.06858834,13.1639344 2.3860683,13.1639344 C3.7056052,13.1639344 4.77419355,14.2358791 4.77419355,15.557377" id="Fill-14"></path>
                        <path d="M19.0967742,15.557377 C19.0967742,16.8793906 18.0281858,17.9508197 16.7091632,17.9508197 C15.391169,17.9508197 14.3225806,16.8793906 14.3225806,15.557377 C14.3225806,14.2358791 15.391169,13.1639344 16.7091632,13.1639344 C18.0281858,13.1639344 19.0967742,14.2358791 19.0967742,15.557377" id="Fill-16"></path>
                        <path d="M32.2258065,15.557377 C32.2258065,16.8793906 31.1569879,17.9508197 29.8387097,17.9508197 C28.5199171,17.9508197 27.4516129,16.8793906 27.4516129,15.557377 C27.4516129,14.2358791 28.5199171,13.1639344 29.8387097,13.1639344 C31.1569879,13.1639344 32.2258065,14.2358791 32.2258065,15.557377" id="Fill-18"></path>
                        <path d="M46.5483871,15.557377 C46.5483871,16.8793906 45.4795685,17.9508197 44.1602616,17.9508197 C42.8419834,17.9508197 41.7741935,16.8793906 41.7741935,15.557377 C41.7741935,14.2358791 42.8419834,13.1639344 44.1602616,13.1639344 C45.4795685,13.1639344 46.5483871,14.2358791 46.5483871,15.557377" id="Fill-20"></path>
                        <path d="M59.6774194,15.557377 C59.6774194,16.8793906 58.6093452,17.9508197 57.2898083,17.9508197 C55.9718142,17.9508197 54.9032258,16.8793906 54.9032258,15.557377 C54.9032258,14.2358791 55.9718142,13.1639344 57.2898083,13.1639344 C58.6093452,13.1639344 59.6774194,14.2358791 59.6774194,15.557377" id="Fill-22"></path>
                        <path d="M4.77419355,30.5167157 C4.77419355,32.1684102 3.7056052,33.5081967 2.3860683,33.5081967 C1.06858834,33.5081967 0,32.1684102 0,30.5167157 C0,28.8643767 1.06858834,27.5245902 2.3860683,27.5245902 C3.7056052,27.5245902 4.77419355,28.8643767 4.77419355,30.5167157" id="Fill-27"></path>
                        <path d="M19.0967742,30.5167157 C19.0967742,32.1684102 18.0281858,33.5081967 16.7091632,33.5081967 C15.391169,33.5081967 14.3225806,32.1684102 14.3225806,30.5167157 C14.3225806,28.8643767 15.391169,27.5245902 16.7091632,27.5245902 C18.0281858,27.5245902 19.0967742,28.8643767 19.0967742,30.5167157" id="Fill-29"></path>
                        <path d="M32.2258065,30.5167157 C32.2258065,32.1684102 31.1569879,33.5081967 29.8387097,33.5081967 C28.5199171,33.5081967 27.4516129,32.1684102 27.4516129,30.5167157 C27.4516129,28.8643767 28.5199171,27.5245902 29.8387097,27.5245902 C31.1569879,27.5245902 32.2258065,28.8643767 32.2258065,30.5167157" id="Fill-31"></path>
                        <path d="M46.5483871,30.5167157 C46.5483871,32.1684102 45.4795685,33.5081967 44.1602616,33.5081967 C42.8419834,33.5081967 41.7741935,32.1684102 41.7741935,30.5167157 C41.7741935,28.8643767 42.8419834,27.5245902 44.1602616,27.5245902 C45.4795685,27.5245902 46.5483871,28.8643767 46.5483871,30.5167157" id="Fill-33"></path>
                        <path d="M59.6774194,30.5167157 C59.6774194,32.1684102 58.6093452,33.5081967 57.2898083,33.5081967 C55.9718142,33.5081967 54.9032258,32.1684102 54.9032258,30.5167157 C54.9032258,28.8643767 55.9718142,27.5245902 57.2898083,27.5245902 C58.6093452,27.5245902 59.6774194,28.8643767 59.6774194,30.5167157" id="Fill-35"></path>
                        <path d="M4.77419355,43.6800056 C4.77419355,45.3323446 3.7056052,46.6721311 2.3860683,46.6721311 C1.06858834,46.6721311 0,45.3323446 0,43.6800056 C0,42.0283111 1.06858834,40.6885246 2.3860683,40.6885246 C3.7056052,40.6885246 4.77419355,42.0283111 4.77419355,43.6800056" id="Fill-40"></path>
                        <path d="M19.0967742,43.6800056 C19.0967742,45.3323446 18.0281858,46.6721311 16.7091632,46.6721311 C15.391169,46.6721311 14.3225806,45.3323446 14.3225806,43.6800056 C14.3225806,42.0283111 15.391169,40.6885246 16.7091632,40.6885246 C18.0281858,40.6885246 19.0967742,42.0283111 19.0967742,43.6800056" id="Fill-42"></path>
                        <path d="M32.2258065,43.6800056 C32.2258065,45.3323446 31.1569879,46.6721311 29.8387097,46.6721311 C28.5199171,46.6721311 27.4516129,45.3323446 27.4516129,43.6800056 C27.4516129,42.0283111 28.5199171,40.6885246 29.8387097,40.6885246 C31.1569879,40.6885246 32.2258065,42.0283111 32.2258065,43.6800056" id="Fill-44"></path>
                        <path d="M46.5483871,43.6800056 C46.5483871,45.3323446 45.4795685,46.6721311 44.1602616,46.6721311 C42.8419834,46.6721311 41.7741935,45.3323446 41.7741935,43.6800056 C41.7741935,42.0283111 42.8419834,40.6885246 44.1602616,40.6885246 C45.4795685,40.6885246 46.5483871,42.0283111 46.5483871,43.6800056" id="Fill-46"></path>
                        <path d="M59.6774194,43.6800056 C59.6774194,45.3323446 58.6093452,46.6721311 57.2898083,46.6721311 C55.9718142,46.6721311 54.9032258,45.3323446 54.9032258,43.6800056 C54.9032258,42.0283111 55.9718142,40.6885246 57.2898083,40.6885246 C58.6093452,40.6885246 59.6774194,42.0283111 59.6774194,43.6800056" id="Fill-48"></path>
                        <path d="M4.77419355,57.442623 C4.77419355,58.7641209 3.7056052,59.8360656 2.3860683,59.8360656 C1.06858834,59.8360656 0,58.7641209 0,57.442623 C0,56.1206094 1.06858834,55.0491803 2.3860683,55.0491803 C3.7056052,55.0491803 4.77419355,56.1206094 4.77419355,57.442623" id="Fill-53"></path>
                        <path d="M19.0967742,57.442623 C19.0967742,58.7641209 18.0281858,59.8360656 16.7091632,59.8360656 C15.391169,59.8360656 14.3225806,58.7641209 14.3225806,57.442623 C14.3225806,56.1206094 15.391169,55.0491803 16.7091632,55.0491803 C18.0281858,55.0491803 19.0967742,56.1206094 19.0967742,57.442623" id="Fill-55"></path>
                        <path d="M32.2258065,57.442623 C32.2258065,58.7641209 31.1569879,59.8360656 29.8387097,59.8360656 C28.5199171,59.8360656 27.4516129,58.7641209 27.4516129,57.442623 C27.4516129,56.1206094 28.5199171,55.0491803 29.8387097,55.0491803 C31.1569879,55.0491803 32.2258065,56.1206094 32.2258065,57.442623" id="Fill-57"></path>
                        <path d="M46.5483871,57.442623 C46.5483871,58.7641209 45.4795685,59.8360656 44.1602616,59.8360656 C42.8419834,59.8360656 41.7741935,58.7641209 41.7741935,57.442623 C41.7741935,56.1206094 42.8419834,55.0491803 44.1602616,55.0491803 C45.4795685,55.0491803 46.5483871,56.1206094 46.5483871,57.442623" id="Fill-59"></path>
                        <path d="M59.6774194,57.442623 C59.6774194,58.7641209 58.6093452,59.8360656 57.2898083,59.8360656 C55.9718142,59.8360656 54.9032258,58.7641209 54.9032258,57.442623 C54.9032258,56.1206094 55.9718142,55.0491803 57.2898083,55.0491803 C58.6093452,55.0491803 59.6774194,56.1206094 59.6774194,57.442623" id="Fill-61"></path>
                        <path d="M4.77419355,70.6065574 C4.77419355,71.9285709 3.7056052,73 2.3860683,73 C1.06858834,73 0,71.9285709 0,70.6065574 C0,69.2845438 1.06858834,68.2131148 2.3860683,68.2131148 C3.7056052,68.2131148 4.77419355,69.2845438 4.77419355,70.6065574" id="Fill-66"></path>
                        <path d="M19.0967742,70.6065574 C19.0967742,71.9285709 18.0281858,73 16.7091632,73 C15.391169,73 14.3225806,71.9285709 14.3225806,70.6065574 C14.3225806,69.2845438 15.391169,68.2131148 16.7091632,68.2131148 C18.0281858,68.2131148 19.0967742,69.2845438 19.0967742,70.6065574" id="Fill-68"></path>
                        <path d="M32.2258065,70.6065574 C32.2258065,71.9285709 31.1569879,73 29.8387097,73 C28.5199171,73 27.4516129,71.9285709 27.4516129,70.6065574 C27.4516129,69.2845438 28.5199171,68.2131148 29.8387097,68.2131148 C31.1569879,68.2131148 32.2258065,69.2845438 32.2258065,70.6065574" id="Fill-70"></path>
                        <path d="M46.5483871,70.6065574 C46.5483871,71.9285709 45.4795685,73 44.1602616,73 C42.8419834,73 41.7741935,71.9285709 41.7741935,70.6065574 C41.7741935,69.2845438 42.8419834,68.2131148 44.1602616,68.2131148 C45.4795685,68.2131148 46.5483871,69.2845438 46.5483871,70.6065574" id="Fill-72"></path>
                        <path d="M59.6774194,70.6065574 C59.6774194,71.9285709 58.6093452,73 57.2898083,73 C55.9718142,73 54.9032258,71.9285709 54.9032258,70.6065574 C54.9032258,69.2845438 55.9718142,68.2131148 57.2898083,68.2131148 C58.6093452,68.2131148 59.6774194,69.2845438 59.6774194,70.6065574" id="Fill-74"></path>
                        <path d="M74,2.39344262 C74,3.71545617 72.9319259,4.78688525 71.612389,4.78688525 C70.2943948,4.78688525 69.2258065,3.71545617 69.2258065,2.39344262 C69.2258065,1.07142908 70.2943948,0 71.612389,0 C72.9319259,0 74,1.07142908 74,2.39344262" id="Fill-9-Copy"></path>
                        <path d="M74,15.557377 C74,16.8793906 72.9319259,17.9508197 71.612389,17.9508197 C70.2943948,17.9508197 69.2258065,16.8793906 69.2258065,15.557377 C69.2258065,14.2358791 70.2943948,13.1639344 71.612389,13.1639344 C72.9319259,13.1639344 74,14.2358791 74,15.557377" id="Fill-22-Copy"></path>
                        <path d="M74,30.5167157 C74,32.1684102 72.9319259,33.5081967 71.612389,33.5081967 C70.2943948,33.5081967 69.2258065,32.1684102 69.2258065,30.5167157 C69.2258065,28.8643767 70.2943948,27.5245902 71.612389,27.5245902 C72.9319259,27.5245902 74,28.8643767 74,30.5167157" id="Fill-35-Copy"></path>
                        <path d="M74,43.6800056 C74,45.3323446 72.9319259,46.6721311 71.612389,46.6721311 C70.2943948,46.6721311 69.2258065,45.3323446 69.2258065,43.6800056 C69.2258065,42.0283111 70.2943948,40.6885246 71.612389,40.6885246 C72.9319259,40.6885246 74,42.0283111 74,43.6800056" id="Fill-48-Copy"></path>
                        <path d="M74,57.442623 C74,58.7641209 72.9319259,59.8360656 71.612389,59.8360656 C70.2943948,59.8360656 69.2258065,58.7641209 69.2258065,57.442623 C69.2258065,56.1206094 70.2943948,55.0491803 71.612389,55.0491803 C72.9319259,55.0491803 74,56.1206094 74,57.442623" id="Fill-61-Copy"></path>
                        <path d="M74,70.6065574 C74,71.9285709 72.9319259,73 71.612389,73 C70.2943948,73 69.2258065,71.9285709 69.2258065,70.6065574 C69.2258065,69.2845438 70.2943948,68.2131148 71.612389,68.2131148 C72.9319259,68.2131148 74,69.2845438 74,70.6065574" id="Fill-74-Copy"></path>
                    </g>
                    <g id="Group-79-Copy-2" transform="translate(84.000000, 80.000000)">
                        <path d="M4.77419355,2.39344262 C4.77419355,3.71545617 3.7056052,4.78688525 2.3860683,4.78688525 C1.06858834,4.78688525 0,3.71545617 0,2.39344262 C0,1.07142908 1.06858834,0 2.3860683,0 C3.7056052,0 4.77419355,1.07142908 4.77419355,2.39344262" id="Fill-1"></path>
                        <path d="M19.0967742,2.39344262 C19.0967742,3.71545617 18.0281858,4.78688525 16.7091632,4.78688525 C15.391169,4.78688525 14.3225806,3.71545617 14.3225806,2.39344262 C14.3225806,1.07142908 15.391169,0 16.7091632,0 C18.0281858,0 19.0967742,1.07142908 19.0967742,2.39344262" id="Fill-3"></path>
                        <path d="M32.2258065,2.39344262 C32.2258065,3.71545617 31.1569879,4.78688525 29.8387097,4.78688525 C28.5199171,4.78688525 27.4516129,3.71545617 27.4516129,2.39344262 C27.4516129,1.07142908 28.5199171,0 29.8387097,0 C31.1569879,0 32.2258065,1.07142908 32.2258065,2.39344262" id="Fill-5"></path>
                        <path d="M46.5483871,2.39344262 C46.5483871,3.71545617 45.4795685,4.78688525 44.1602616,4.78688525 C42.8419834,4.78688525 41.7741935,3.71545617 41.7741935,2.39344262 C41.7741935,1.07142908 42.8419834,0 44.1602616,0 C45.4795685,0 46.5483871,1.07142908 46.5483871,2.39344262" id="Fill-7"></path>
                        <path d="M59.6774194,2.39344262 C59.6774194,3.71545617 58.6093452,4.78688525 57.2898083,4.78688525 C55.9718142,4.78688525 54.9032258,3.71545617 54.9032258,2.39344262 C54.9032258,1.07142908 55.9718142,0 57.2898083,0 C58.6093452,0 59.6774194,1.07142908 59.6774194,2.39344262" id="Fill-9"></path>
                        <path d="M4.77419355,15.557377 C4.77419355,16.8793906 3.7056052,17.9508197 2.3860683,17.9508197 C1.06858834,17.9508197 0,16.8793906 0,15.557377 C0,14.2358791 1.06858834,13.1639344 2.3860683,13.1639344 C3.7056052,13.1639344 4.77419355,14.2358791 4.77419355,15.557377" id="Fill-14"></path>
                        <path d="M19.0967742,15.557377 C19.0967742,16.8793906 18.0281858,17.9508197 16.7091632,17.9508197 C15.391169,17.9508197 14.3225806,16.8793906 14.3225806,15.557377 C14.3225806,14.2358791 15.391169,13.1639344 16.7091632,13.1639344 C18.0281858,13.1639344 19.0967742,14.2358791 19.0967742,15.557377" id="Fill-16"></path>
                        <path d="M32.2258065,15.557377 C32.2258065,16.8793906 31.1569879,17.9508197 29.8387097,17.9508197 C28.5199171,17.9508197 27.4516129,16.8793906 27.4516129,15.557377 C27.4516129,14.2358791 28.5199171,13.1639344 29.8387097,13.1639344 C31.1569879,13.1639344 32.2258065,14.2358791 32.2258065,15.557377" id="Fill-18"></path>
                        <path d="M46.5483871,15.557377 C46.5483871,16.8793906 45.4795685,17.9508197 44.1602616,17.9508197 C42.8419834,17.9508197 41.7741935,16.8793906 41.7741935,15.557377 C41.7741935,14.2358791 42.8419834,13.1639344 44.1602616,13.1639344 C45.4795685,13.1639344 46.5483871,14.2358791 46.5483871,15.557377" id="Fill-20"></path>
                        <path d="M59.6774194,15.557377 C59.6774194,16.8793906 58.6093452,17.9508197 57.2898083,17.9508197 C55.9718142,17.9508197 54.9032258,16.8793906 54.9032258,15.557377 C54.9032258,14.2358791 55.9718142,13.1639344 57.2898083,13.1639344 C58.6093452,13.1639344 59.6774194,14.2358791 59.6774194,15.557377" id="Fill-22"></path>
                        <path d="M4.77419355,30.5167157 C4.77419355,32.1684102 3.7056052,33.5081967 2.3860683,33.5081967 C1.06858834,33.5081967 0,32.1684102 0,30.5167157 C0,28.8643767 1.06858834,27.5245902 2.3860683,27.5245902 C3.7056052,27.5245902 4.77419355,28.8643767 4.77419355,30.5167157" id="Fill-27"></path>
                        <path d="M19.0967742,30.5167157 C19.0967742,32.1684102 18.0281858,33.5081967 16.7091632,33.5081967 C15.391169,33.5081967 14.3225806,32.1684102 14.3225806,30.5167157 C14.3225806,28.8643767 15.391169,27.5245902 16.7091632,27.5245902 C18.0281858,27.5245902 19.0967742,28.8643767 19.0967742,30.5167157" id="Fill-29"></path>
                        <path d="M32.2258065,30.5167157 C32.2258065,32.1684102 31.1569879,33.5081967 29.8387097,33.5081967 C28.5199171,33.5081967 27.4516129,32.1684102 27.4516129,30.5167157 C27.4516129,28.8643767 28.5199171,27.5245902 29.8387097,27.5245902 C31.1569879,27.5245902 32.2258065,28.8643767 32.2258065,30.5167157" id="Fill-31"></path>
                        <path d="M46.5483871,30.5167157 C46.5483871,32.1684102 45.4795685,33.5081967 44.1602616,33.5081967 C42.8419834,33.5081967 41.7741935,32.1684102 41.7741935,30.5167157 C41.7741935,28.8643767 42.8419834,27.5245902 44.1602616,27.5245902 C45.4795685,27.5245902 46.5483871,28.8643767 46.5483871,30.5167157" id="Fill-33"></path>
                        <path d="M59.6774194,30.5167157 C59.6774194,32.1684102 58.6093452,33.5081967 57.2898083,33.5081967 C55.9718142,33.5081967 54.9032258,32.1684102 54.9032258,30.5167157 C54.9032258,28.8643767 55.9718142,27.5245902 57.2898083,27.5245902 C58.6093452,27.5245902 59.6774194,28.8643767 59.6774194,30.5167157" id="Fill-35"></path>
                        <path d="M4.77419355,43.6800056 C4.77419355,45.3323446 3.7056052,46.6721311 2.3860683,46.6721311 C1.06858834,46.6721311 0,45.3323446 0,43.6800056 C0,42.0283111 1.06858834,40.6885246 2.3860683,40.6885246 C3.7056052,40.6885246 4.77419355,42.0283111 4.77419355,43.6800056" id="Fill-40"></path>
                        <path d="M19.0967742,43.6800056 C19.0967742,45.3323446 18.0281858,46.6721311 16.7091632,46.6721311 C15.391169,46.6721311 14.3225806,45.3323446 14.3225806,43.6800056 C14.3225806,42.0283111 15.391169,40.6885246 16.7091632,40.6885246 C18.0281858,40.6885246 19.0967742,42.0283111 19.0967742,43.6800056" id="Fill-42"></path>
                        <path d="M32.2258065,43.6800056 C32.2258065,45.3323446 31.1569879,46.6721311 29.8387097,46.6721311 C28.5199171,46.6721311 27.4516129,45.3323446 27.4516129,43.6800056 C27.4516129,42.0283111 28.5199171,40.6885246 29.8387097,40.6885246 C31.1569879,40.6885246 32.2258065,42.0283111 32.2258065,43.6800056" id="Fill-44"></path>
                        <path d="M46.5483871,43.6800056 C46.5483871,45.3323446 45.4795685,46.6721311 44.1602616,46.6721311 C42.8419834,46.6721311 41.7741935,45.3323446 41.7741935,43.6800056 C41.7741935,42.0283111 42.8419834,40.6885246 44.1602616,40.6885246 C45.4795685,40.6885246 46.5483871,42.0283111 46.5483871,43.6800056" id="Fill-46"></path>
                        <path d="M59.6774194,43.6800056 C59.6774194,45.3323446 58.6093452,46.6721311 57.2898083,46.6721311 C55.9718142,46.6721311 54.9032258,45.3323446 54.9032258,43.6800056 C54.9032258,42.0283111 55.9718142,40.6885246 57.2898083,40.6885246 C58.6093452,40.6885246 59.6774194,42.0283111 59.6774194,43.6800056" id="Fill-48"></path>
                        <path d="M4.77419355,57.442623 C4.77419355,58.7641209 3.7056052,59.8360656 2.3860683,59.8360656 C1.06858834,59.8360656 0,58.7641209 0,57.442623 C0,56.1206094 1.06858834,55.0491803 2.3860683,55.0491803 C3.7056052,55.0491803 4.77419355,56.1206094 4.77419355,57.442623" id="Fill-53"></path>
                        <path d="M19.0967742,57.442623 C19.0967742,58.7641209 18.0281858,59.8360656 16.7091632,59.8360656 C15.391169,59.8360656 14.3225806,58.7641209 14.3225806,57.442623 C14.3225806,56.1206094 15.391169,55.0491803 16.7091632,55.0491803 C18.0281858,55.0491803 19.0967742,56.1206094 19.0967742,57.442623" id="Fill-55"></path>
                        <path d="M32.2258065,57.442623 C32.2258065,58.7641209 31.1569879,59.8360656 29.8387097,59.8360656 C28.5199171,59.8360656 27.4516129,58.7641209 27.4516129,57.442623 C27.4516129,56.1206094 28.5199171,55.0491803 29.8387097,55.0491803 C31.1569879,55.0491803 32.2258065,56.1206094 32.2258065,57.442623" id="Fill-57"></path>
                        <path d="M46.5483871,57.442623 C46.5483871,58.7641209 45.4795685,59.8360656 44.1602616,59.8360656 C42.8419834,59.8360656 41.7741935,58.7641209 41.7741935,57.442623 C41.7741935,56.1206094 42.8419834,55.0491803 44.1602616,55.0491803 C45.4795685,55.0491803 46.5483871,56.1206094 46.5483871,57.442623" id="Fill-59"></path>
                        <path d="M59.6774194,57.442623 C59.6774194,58.7641209 58.6093452,59.8360656 57.2898083,59.8360656 C55.9718142,59.8360656 54.9032258,58.7641209 54.9032258,57.442623 C54.9032258,56.1206094 55.9718142,55.0491803 57.2898083,55.0491803 C58.6093452,55.0491803 59.6774194,56.1206094 59.6774194,57.442623" id="Fill-61"></path>
                        <path d="M4.77419355,70.6065574 C4.77419355,71.9285709 3.7056052,73 2.3860683,73 C1.06858834,73 0,71.9285709 0,70.6065574 C0,69.2845438 1.06858834,68.2131148 2.3860683,68.2131148 C3.7056052,68.2131148 4.77419355,69.2845438 4.77419355,70.6065574" id="Fill-66"></path>
                        <path d="M19.0967742,70.6065574 C19.0967742,71.9285709 18.0281858,73 16.7091632,73 C15.391169,73 14.3225806,71.9285709 14.3225806,70.6065574 C14.3225806,69.2845438 15.391169,68.2131148 16.7091632,68.2131148 C18.0281858,68.2131148 19.0967742,69.2845438 19.0967742,70.6065574" id="Fill-68"></path>
                        <path d="M32.2258065,70.6065574 C32.2258065,71.9285709 31.1569879,73 29.8387097,73 C28.5199171,73 27.4516129,71.9285709 27.4516129,70.6065574 C27.4516129,69.2845438 28.5199171,68.2131148 29.8387097,68.2131148 C31.1569879,68.2131148 32.2258065,69.2845438 32.2258065,70.6065574" id="Fill-70"></path>
                        <path d="M46.5483871,70.6065574 C46.5483871,71.9285709 45.4795685,73 44.1602616,73 C42.8419834,73 41.7741935,71.9285709 41.7741935,70.6065574 C41.7741935,69.2845438 42.8419834,68.2131148 44.1602616,68.2131148 C45.4795685,68.2131148 46.5483871,69.2845438 46.5483871,70.6065574" id="Fill-72"></path>
                        <path d="M59.6774194,70.6065574 C59.6774194,71.9285709 58.6093452,73 57.2898083,73 C55.9718142,73 54.9032258,71.9285709 54.9032258,70.6065574 C54.9032258,69.2845438 55.9718142,68.2131148 57.2898083,68.2131148 C58.6093452,68.2131148 59.6774194,69.2845438 59.6774194,70.6065574" id="Fill-74"></path>
                        <path d="M74,2.39344262 C74,3.71545617 72.9319259,4.78688525 71.612389,4.78688525 C70.2943948,4.78688525 69.2258065,3.71545617 69.2258065,2.39344262 C69.2258065,1.07142908 70.2943948,0 71.612389,0 C72.9319259,0 74,1.07142908 74,2.39344262" id="Fill-9-Copy"></path>
                        <path d="M74,15.557377 C74,16.8793906 72.9319259,17.9508197 71.612389,17.9508197 C70.2943948,17.9508197 69.2258065,16.8793906 69.2258065,15.557377 C69.2258065,14.2358791 70.2943948,13.1639344 71.612389,13.1639344 C72.9319259,13.1639344 74,14.2358791 74,15.557377" id="Fill-22-Copy"></path>
                        <path d="M74,30.5167157 C74,32.1684102 72.9319259,33.5081967 71.612389,33.5081967 C70.2943948,33.5081967 69.2258065,32.1684102 69.2258065,30.5167157 C69.2258065,28.8643767 70.2943948,27.5245902 71.612389,27.5245902 C72.9319259,27.5245902 74,28.8643767 74,30.5167157" id="Fill-35-Copy"></path>
                        <path d="M74,43.6800056 C74,45.3323446 72.9319259,46.6721311 71.612389,46.6721311 C70.2943948,46.6721311 69.2258065,45.3323446 69.2258065,43.6800056 C69.2258065,42.0283111 70.2943948,40.6885246 71.612389,40.6885246 C72.9319259,40.6885246 74,42.0283111 74,43.6800056" id="Fill-48-Copy"></path>
                        <path d="M74,57.442623 C74,58.7641209 72.9319259,59.8360656 71.612389,59.8360656 C70.2943948,59.8360656 69.2258065,58.7641209 69.2258065,57.442623 C69.2258065,56.1206094 70.2943948,55.0491803 71.612389,55.0491803 C72.9319259,55.0491803 74,56.1206094 74,57.442623" id="Fill-61-Copy"></path>
                        <path d="M74,70.6065574 C74,71.9285709 72.9319259,73 71.612389,73 C70.2943948,73 69.2258065,71.9285709 69.2258065,70.6065574 C69.2258065,69.2845438 70.2943948,68.2131148 71.612389,68.2131148 C72.9319259,68.2131148 74,69.2845438 74,70.6065574" id="Fill-74-Copy"></path>
                    </g>
                </g>
                <path d="M1010.78125,403.816406 C1013.75781,400.714844 1067.66797,321.578125 1190.84766,323.855469 C1272.96745,325.373698 1328.92188,292.755208 1358.71094,226" id="Path-2" stroke="#FFFFFF" stroke-width="6" opacity="0.0382021949" stroke-linecap="round"></path>
                <path d="M0,65.0742187 C53.5208333,50.2799479 86.3164063,60.2252604 98.3867188,94.9101562 C116.492188,146.9375 164.019531,119.097656 192.523438,126.367187 C221.027344,133.636719 224.773438,166.234375 227.625,183.832031" id="Path-3" stroke="#FFFFFF" stroke-width="5" opacity="0.100655692" stroke-linecap="round"></path>
                <circle id="Oval" stroke="#FFFFFF" stroke-width="5" opacity="0.0407598586" cx="970.28125" cy="182.5" r="13.5"></circle>
                <rect id="Rectangle" stroke="#FFFFFF" stroke-width="5" opacity="0.122791109" transform="translate(371.377168, 19.595918) rotate(15.000000) translate(-371.377168, -19.595918) " x="357.877168" y="6.09591794" width="27" height="27"></rect>
            </g>
        </g>
    </g>
</svg>